<svg width="412" height="346" viewBox="0 0 412 346" fill="none" xmlns="http://www.w3.org/2000/svg">
<rect width="412" height="346" rx="24" fill="black" fill-opacity="0.15"/>
<rect x="0.5" y="0.5" width="411" height="345" rx="23.5" stroke="white" stroke-opacity="0.1"/>
<path d="M26.816 57V33.16H29.376V43.88H42.176V33.16H44.736V57H42.176V46.28H29.376V57H26.816ZM57.8345 57.384C56.2345 57.384 54.7838 57 53.4825 56.232C52.2025 55.4427 51.1892 54.3653 50.4425 53C49.6958 51.6347 49.3225 50.088 49.3225 48.36C49.3225 46.632 49.6852 45.1067 50.4105 43.784C51.1358 42.44 52.1172 41.384 53.3545 40.616C54.6132 39.848 56.0212 39.464 57.5785 39.464C58.8158 39.464 59.9145 39.6987 60.8745 40.168C61.8558 40.616 62.6878 41.2347 63.3705 42.024C64.0532 42.792 64.5758 43.6667 64.9385 44.648C65.3012 45.608 65.4825 46.6 65.4825 47.624C65.4825 47.8373 65.4718 48.0827 65.4505 48.36C65.4292 48.616 65.3972 48.8827 65.3545 49.16H50.8585V46.92H63.9785L62.8265 47.88C63.0185 46.7067 62.8798 45.6613 62.4105 44.744C61.9625 43.8053 61.3118 43.0693 60.4585 42.536C59.6052 41.9813 58.6452 41.704 57.5785 41.704C56.5118 41.704 55.5198 41.9813 54.6025 42.536C53.7065 43.0907 53.0025 43.8693 52.4905 44.872C51.9785 45.8533 51.7758 47.0267 51.8825 48.392C51.7758 49.7573 51.9892 50.952 52.5225 51.976C53.0772 52.9787 53.8238 53.7573 54.7625 54.312C55.7225 54.8667 56.7465 55.144 57.8345 55.144C59.0932 55.144 60.1492 54.8453 61.0025 54.248C61.8558 53.6507 62.5492 52.904 63.0825 52.008L65.1305 53.096C64.7892 53.864 64.2665 54.5787 63.5625 55.24C62.8585 55.88 62.0158 56.4027 61.0345 56.808C60.0745 57.192 59.0078 57.384 57.8345 57.384ZM69.714 57V32.776H72.114V57H69.714ZM77.0265 57V32.776H79.4265V57H77.0265ZM92.371 57.384C90.7497 57.384 89.2777 57 87.955 56.232C86.6323 55.4427 85.5763 54.376 84.787 53.032C84.019 51.6667 83.635 50.12 83.635 48.392C83.635 46.6853 84.019 45.16 84.787 43.816C85.555 42.472 86.5897 41.416 87.891 40.648C89.2137 39.8587 90.707 39.464 92.371 39.464C94.035 39.464 95.5177 39.848 96.819 40.616C98.1417 41.384 99.1763 42.44 99.923 43.784C100.691 45.128 101.075 46.664 101.075 48.392C101.075 50.1413 100.68 51.6987 99.891 53.064C99.1017 54.408 98.0457 55.464 96.723 56.232C95.4217 57 93.971 57.384 92.371 57.384ZM92.371 54.984C93.523 54.984 94.5577 54.696 95.475 54.12C96.4137 53.544 97.1497 52.7547 97.683 51.752C98.2377 50.7493 98.515 49.6293 98.515 48.392C98.515 47.1547 98.2377 46.0453 97.683 45.064C97.1497 44.0827 96.4137 43.304 95.475 42.728C94.5577 42.152 93.523 41.864 92.371 41.864C91.219 41.864 90.1737 42.152 89.235 42.728C88.3177 43.304 87.5817 44.0827 87.027 45.064C86.4723 46.0453 86.195 47.1547 86.195 48.392C86.195 49.6293 86.4723 50.7493 87.027 51.752C87.5817 52.7547 88.3177 53.544 89.235 54.12C90.1737 54.696 91.219 54.984 92.371 54.984ZM105.404 61.16V60.04C106.044 59.8693 106.513 59.5387 106.812 59.048C107.11 58.5573 107.26 57.8747 107.26 57H106.044V53.48H108.604V56.168C108.604 57.5547 108.337 58.664 107.804 59.496C107.27 60.3493 106.47 60.904 105.404 61.16ZM119.722 57V33.16H121.962L130.922 46.152H129.674L138.602 33.16H140.842V57H138.282V36.616L139.114 36.936L130.346 49.64H130.218L121.482 36.936L122.282 36.616V57H119.722ZM146.12 57V39.848H148.52V57H146.12ZM146.12 36.68V33.16H148.52V36.68H146.12ZM153.433 57V32.776H155.833V49.736L154.809 49.576L164.441 39.848H167.545L160.825 46.728L168.153 57H165.273L158.393 47.496L159.929 47.624L155.033 52.68L155.833 50.696V57H153.433ZM178.684 57.384C177.062 57.384 175.59 57 174.268 56.232C172.945 55.4427 171.889 54.376 171.1 53.032C170.332 51.6667 169.948 50.12 169.948 48.392C169.948 46.6853 170.332 45.16 171.1 43.816C171.868 42.472 172.902 41.416 174.204 40.648C175.526 39.8587 177.02 39.464 178.684 39.464C180.348 39.464 181.83 39.848 183.132 40.616C184.454 41.384 185.489 42.44 186.236 43.784C187.004 45.128 187.388 46.664 187.388 48.392C187.388 50.1413 186.993 51.6987 186.204 53.064C185.414 54.408 184.358 55.464 183.036 56.232C181.734 57 180.284 57.384 178.684 57.384ZM178.684 54.984C179.836 54.984 180.87 54.696 181.788 54.12C182.726 53.544 183.462 52.7547 183.996 51.752C184.55 50.7493 184.828 49.6293 184.828 48.392C184.828 47.1547 184.55 46.0453 183.996 45.064C183.462 44.0827 182.726 43.304 181.788 42.728C180.87 42.152 179.836 41.864 178.684 41.864C177.532 41.864 176.486 42.152 175.548 42.728C174.63 43.304 173.894 44.0827 173.34 45.064C172.785 46.0453 172.508 47.1547 172.508 48.392C172.508 49.6293 172.785 50.7493 173.34 51.752C173.894 52.7547 174.63 53.544 175.548 54.12C176.486 54.696 177.532 54.984 178.684 54.984ZM191.62 57V32.776H194.02V57H191.62ZM203.893 57.384C202.805 57.384 201.834 57.1813 200.981 56.776C200.127 56.3493 199.455 55.7733 198.965 55.048C198.474 54.3227 198.229 53.4907 198.229 52.552C198.229 51.656 198.421 50.8453 198.805 50.12C199.189 49.3733 199.786 48.744 200.597 48.232C201.407 47.72 202.442 47.3573 203.701 47.144L210.421 46.024V48.2L204.277 49.224C203.039 49.4373 202.143 49.832 201.589 50.408C201.055 50.984 200.789 51.6667 200.789 52.456C200.789 53.224 201.087 53.8747 201.685 54.408C202.303 54.9413 203.093 55.208 204.053 55.208C205.226 55.208 206.25 54.9627 207.125 54.472C207.999 53.96 208.682 53.2773 209.173 52.424C209.663 51.5707 209.909 50.6213 209.909 49.576V45.224C209.909 44.2 209.535 43.368 208.789 42.728C208.042 42.088 207.071 41.768 205.877 41.768C204.831 41.768 203.914 42.0347 203.125 42.568C202.335 43.08 201.749 43.752 201.365 44.584L199.189 43.4C199.509 42.6747 200.01 42.0133 200.693 41.416C201.397 40.8187 202.197 40.3493 203.093 40.008C203.989 39.6453 204.917 39.464 205.877 39.464C207.135 39.464 208.245 39.7093 209.205 40.2C210.186 40.6907 210.943 41.3733 211.477 42.248C212.031 43.1013 212.309 44.0933 212.309 45.224V57H209.909V53.576L210.261 53.928C209.962 54.568 209.493 55.1547 208.853 55.688C208.234 56.2 207.498 56.616 206.645 56.936C205.813 57.2347 204.895 57.384 203.893 57.384ZM214.045 64.04C213.896 64.04 213.693 64.0293 213.437 64.008C213.16 63.9867 212.936 63.9547 212.765 63.912V61.704C213.213 61.768 213.661 61.8 214.109 61.8C214.984 61.8 215.72 61.5333 216.317 61C216.936 60.4667 217.245 59.6667 217.245 58.6V39.848H219.645V58.6C219.645 59.7733 219.389 60.7653 218.877 61.576C218.365 62.3867 217.683 62.9947 216.829 63.4C215.997 63.8267 215.069 64.04 214.045 64.04ZM217.245 36.68V33.16H219.645V36.68H217.245ZM225.486 50.152L225.326 33.16H227.886L227.726 50.152H225.486ZM225.326 57V53.48H227.886V57H225.326Z" fill="url(#paint0_linear_1_1298)"/>
<path d="M25.232 86V75.57H26.352V84.95H30.972V86H25.232ZM36.1795 86.168C35.4702 86.168 34.8262 86 34.2475 85.664C33.6688 85.3187 33.2068 84.852 32.8615 84.264C32.5255 83.6667 32.3575 82.99 32.3575 82.234C32.3575 81.4873 32.5255 80.82 32.8615 80.232C33.1975 79.644 33.6502 79.182 34.2195 78.846C34.7982 78.5007 35.4515 78.328 36.1795 78.328C36.9075 78.328 37.5562 78.496 38.1255 78.832C38.7042 79.168 39.1568 79.63 39.4835 80.218C39.8195 80.806 39.9875 81.478 39.9875 82.234C39.9875 82.9993 39.8148 83.6807 39.4695 84.278C39.1242 84.866 38.6622 85.328 38.0835 85.664C37.5142 86 36.8795 86.168 36.1795 86.168ZM36.1795 85.118C36.6835 85.118 37.1362 84.992 37.5375 84.74C37.9482 84.488 38.2702 84.1427 38.5035 83.704C38.7462 83.2653 38.8675 82.7753 38.8675 82.234C38.8675 81.6927 38.7462 81.2073 38.5035 80.778C38.2702 80.3487 37.9482 80.008 37.5375 79.756C37.1362 79.504 36.6835 79.378 36.1795 79.378C35.6755 79.378 35.2182 79.504 34.8075 79.756C34.4062 80.008 34.0842 80.3487 33.8415 80.778C33.5988 81.2073 33.4775 81.6927 33.4775 82.234C33.4775 82.7753 33.5988 83.2653 33.8415 83.704C34.0842 84.1427 34.4062 84.488 34.8075 84.74C35.2182 84.992 35.6755 85.118 36.1795 85.118ZM45.5453 89.08C45.032 89.08 44.556 89.0007 44.1173 88.842C43.688 88.6833 43.3147 88.464 42.9973 88.184C42.6893 87.9133 42.4513 87.596 42.2833 87.232L43.2493 86.714C43.3987 87.0687 43.6647 87.3767 44.0473 87.638C44.43 87.8993 44.92 88.03 45.5173 88.03C45.9747 88.03 46.3947 87.9413 46.7773 87.764C47.16 87.5867 47.468 87.3253 47.7013 86.98C47.9347 86.6347 48.0513 86.21 48.0513 85.706V84.04L48.2193 84.194C47.958 84.7353 47.5707 85.1553 47.0573 85.454C46.544 85.7433 45.984 85.888 45.3773 85.888C44.6773 85.888 44.0473 85.72 43.4873 85.384C42.9273 85.048 42.484 84.5953 42.1573 84.026C41.84 83.4473 41.6813 82.808 41.6813 82.108C41.6813 81.3987 41.84 80.7593 42.1573 80.19C42.484 79.6207 42.9227 79.168 43.4733 78.832C44.0333 78.496 44.668 78.328 45.3773 78.328C45.984 78.328 46.5347 78.468 47.0293 78.748C47.5333 79.028 47.93 79.406 48.2193 79.882L48.0513 80.176V78.496H49.1013V85.706C49.1013 86.35 48.9473 86.924 48.6393 87.428C48.3407 87.9413 47.9207 88.3427 47.3793 88.632C46.8473 88.9307 46.236 89.08 45.5453 89.08ZM45.4333 84.838C45.9187 84.838 46.3573 84.7167 46.7493 84.474C47.1413 84.222 47.454 83.8907 47.6873 83.48C47.93 83.06 48.0513 82.6027 48.0513 82.108C48.0513 81.6133 47.93 81.1607 47.6873 80.75C47.454 80.33 47.1413 79.9987 46.7493 79.756C46.3573 79.504 45.9187 79.378 45.4333 79.378C44.9387 79.378 44.4907 79.504 44.0893 79.756C43.688 79.9987 43.3707 80.3253 43.1373 80.736C42.9133 81.1467 42.8013 81.604 42.8013 82.108C42.8013 82.6027 42.9133 83.06 43.1373 83.48C43.3707 83.8907 43.6833 84.222 44.0753 84.474C44.4767 84.7167 44.9293 84.838 45.4333 84.838ZM53.9378 86V78.496H54.9878V86H53.9378ZM53.9378 77.11V75.57H54.9878V77.11H53.9378ZM57.287 86V78.496H58.337V79.952L58.099 79.896C58.2857 79.4107 58.589 79.028 59.009 78.748C59.4383 78.468 59.933 78.328 60.493 78.328C61.025 78.328 61.501 78.4493 61.921 78.692C62.3503 78.9347 62.6863 79.2707 62.929 79.7C63.181 80.12 63.307 80.596 63.307 81.128V86H62.257V81.534C62.257 81.0767 62.173 80.6893 62.005 80.372C61.8463 80.0547 61.6177 79.812 61.319 79.644C61.0297 79.4667 60.6937 79.378 60.311 79.378C59.9283 79.378 59.5877 79.4667 59.289 79.644C58.9903 79.812 58.757 80.0593 58.589 80.386C58.421 80.7033 58.337 81.086 58.337 81.534V86H57.287ZM70.8613 86.084C70.1893 86.084 69.6713 85.888 69.3073 85.496C68.9433 85.104 68.7613 84.544 68.7613 83.816V79.546H67.3753V78.496H67.7253C68.0426 78.496 68.2946 78.3933 68.4813 78.188C68.6679 77.9733 68.7613 77.7073 68.7613 77.39V76.76H69.8113V78.496H71.4633V79.546H69.8113V83.816C69.8113 84.068 69.8486 84.292 69.9233 84.488C69.9979 84.6747 70.1239 84.824 70.3013 84.936C70.4879 85.048 70.7353 85.104 71.0433 85.104C71.1179 85.104 71.2066 85.0993 71.3093 85.09C71.4119 85.0807 71.5006 85.0713 71.5753 85.062V86C71.4633 86.028 71.3373 86.0467 71.1973 86.056C71.0573 86.0747 70.9453 86.084 70.8613 86.084ZM76.8096 86.168C76.1002 86.168 75.4562 86 74.8776 85.664C74.2989 85.3187 73.8369 84.852 73.4916 84.264C73.1556 83.6667 72.9876 82.99 72.9876 82.234C72.9876 81.4873 73.1556 80.82 73.4916 80.232C73.8276 79.644 74.2802 79.182 74.8496 78.846C75.4282 78.5007 76.0816 78.328 76.8096 78.328C77.5376 78.328 78.1862 78.496 78.7556 78.832C79.3342 79.168 79.7869 79.63 80.1136 80.218C80.4496 80.806 80.6176 81.478 80.6176 82.234C80.6176 82.9993 80.4449 83.6807 80.0996 84.278C79.7542 84.866 79.2922 85.328 78.7136 85.664C78.1442 86 77.5096 86.168 76.8096 86.168ZM76.8096 85.118C77.3136 85.118 77.7662 84.992 78.1676 84.74C78.5782 84.488 78.9002 84.1427 79.1336 83.704C79.3762 83.2653 79.4976 82.7753 79.4976 82.234C79.4976 81.6927 79.3762 81.2073 79.1336 80.778C78.9002 80.3487 78.5782 80.008 78.1676 79.756C77.7662 79.504 77.3136 79.378 76.8096 79.378C76.3056 79.378 75.8482 79.504 75.4376 79.756C75.0362 80.008 74.7142 80.3487 74.4716 80.778C74.2289 81.2073 74.1076 81.6927 74.1076 82.234C74.1076 82.7753 74.2289 83.2653 74.4716 83.704C74.7142 84.1427 75.0362 84.488 75.4376 84.74C75.8482 84.992 76.3056 85.118 76.8096 85.118ZM87.3183 86.168C86.8423 86.168 86.4176 86.0793 86.0443 85.902C85.671 85.7153 85.377 85.4633 85.1623 85.146C84.9476 84.8287 84.8403 84.4647 84.8403 84.054C84.8403 83.662 84.9243 83.3073 85.0923 82.99C85.2603 82.6633 85.5216 82.388 85.8763 82.164C86.231 81.94 86.6836 81.7813 87.2343 81.688L90.1743 81.198V82.15L87.4863 82.598C86.945 82.6913 86.553 82.864 86.3103 83.116C86.077 83.368 85.9603 83.6667 85.9603 84.012C85.9603 84.348 86.091 84.6327 86.3523 84.866C86.623 85.0993 86.9683 85.216 87.3883 85.216C87.9016 85.216 88.3496 85.1087 88.7323 84.894C89.115 84.67 89.4136 84.3713 89.6283 83.998C89.843 83.6247 89.9503 83.2093 89.9503 82.752V80.848C89.9503 80.4 89.787 80.036 89.4603 79.756C89.1336 79.476 88.709 79.336 88.1863 79.336C87.729 79.336 87.3276 79.4527 86.9823 79.686C86.637 79.91 86.3803 80.204 86.2123 80.568L85.2603 80.05C85.4003 79.7327 85.6196 79.4433 85.9183 79.182C86.2263 78.9207 86.5763 78.7153 86.9683 78.566C87.3603 78.4073 87.7663 78.328 88.1863 78.328C88.737 78.328 89.2223 78.4353 89.6423 78.65C90.0716 78.8647 90.403 79.1633 90.6363 79.546C90.879 79.9193 91.0003 80.3533 91.0003 80.848V86H89.9503V84.502L90.1043 84.656C89.9736 84.936 89.7683 85.1927 89.4883 85.426C89.2176 85.65 88.8956 85.832 88.5223 85.972C88.1583 86.1027 87.757 86.168 87.3183 86.168ZM96.74 86.168C96.0027 86.168 95.354 85.9953 94.794 85.65C94.234 85.3047 93.7954 84.838 93.478 84.25C93.1607 83.6527 93.002 82.9807 93.002 82.234C93.002 81.4873 93.1607 80.82 93.478 80.232C93.7954 79.644 94.234 79.182 94.794 78.846C95.354 78.5007 96.0027 78.328 96.74 78.328C97.2067 78.328 97.6454 78.412 98.056 78.58C98.4667 78.748 98.8307 78.9767 99.148 79.266C99.4654 79.546 99.7034 79.8727 99.862 80.246L98.91 80.736C98.7234 80.3347 98.4387 80.008 98.056 79.756C97.6734 79.504 97.2347 79.378 96.74 79.378C96.2454 79.378 95.7974 79.504 95.396 79.756C95.004 79.9987 94.6914 80.3393 94.458 80.778C94.234 81.2073 94.122 81.6973 94.122 82.248C94.122 82.7893 94.234 83.2793 94.458 83.718C94.6914 84.1473 95.004 84.488 95.396 84.74C95.7974 84.992 96.2454 85.118 96.74 85.118C97.2347 85.118 97.6687 84.992 98.042 84.74C98.4247 84.488 98.714 84.152 98.91 83.732L99.862 84.25C99.7034 84.614 99.4654 84.9407 99.148 85.23C98.8307 85.5193 98.4667 85.748 98.056 85.916C97.6454 86.084 97.2067 86.168 96.74 86.168ZM105.285 86.168C104.547 86.168 103.899 85.9953 103.339 85.65C102.779 85.3047 102.34 84.838 102.023 84.25C101.705 83.6527 101.547 82.9807 101.547 82.234C101.547 81.4873 101.705 80.82 102.023 80.232C102.34 79.644 102.779 79.182 103.339 78.846C103.899 78.5007 104.547 78.328 105.285 78.328C105.751 78.328 106.19 78.412 106.601 78.58C107.011 78.748 107.375 78.9767 107.693 79.266C108.01 79.546 108.248 79.8727 108.407 80.246L107.455 80.736C107.268 80.3347 106.983 80.008 106.601 79.756C106.218 79.504 105.779 79.378 105.285 79.378C104.79 79.378 104.342 79.504 103.941 79.756C103.549 79.9987 103.236 80.3393 103.003 80.778C102.779 81.2073 102.667 81.6973 102.667 82.248C102.667 82.7893 102.779 83.2793 103.003 83.718C103.236 84.1473 103.549 84.488 103.941 84.74C104.342 84.992 104.79 85.118 105.285 85.118C105.779 85.118 106.213 84.992 106.587 84.74C106.969 84.488 107.259 84.152 107.455 83.732L108.407 84.25C108.248 84.614 108.01 84.9407 107.693 85.23C107.375 85.5193 107.011 85.748 106.601 85.916C106.19 86.084 105.751 86.168 105.285 86.168ZM113.815 86.168C113.115 86.168 112.48 86 111.911 85.664C111.351 85.3187 110.908 84.8473 110.581 84.25C110.254 83.6527 110.091 82.976 110.091 82.22C110.091 81.464 110.25 80.7967 110.567 80.218C110.884 79.63 111.314 79.168 111.855 78.832C112.406 78.496 113.022 78.328 113.703 78.328C114.244 78.328 114.725 78.4307 115.145 78.636C115.574 78.832 115.938 79.1027 116.237 79.448C116.536 79.784 116.764 80.1667 116.923 80.596C117.082 81.016 117.161 81.45 117.161 81.898C117.161 81.9913 117.156 82.0987 117.147 82.22C117.138 82.332 117.124 82.4487 117.105 82.57H110.763V81.59H116.503L115.999 82.01C116.083 81.4967 116.022 81.0393 115.817 80.638C115.621 80.2273 115.336 79.9053 114.963 79.672C114.59 79.4293 114.17 79.308 113.703 79.308C113.236 79.308 112.802 79.4293 112.401 79.672C112.009 79.9147 111.701 80.2553 111.477 80.694C111.253 81.1233 111.164 81.6367 111.211 82.234C111.164 82.8313 111.258 83.354 111.491 83.802C111.734 84.2407 112.06 84.5813 112.471 84.824C112.891 85.0667 113.339 85.188 113.815 85.188C114.366 85.188 114.828 85.0573 115.201 84.796C115.574 84.5347 115.878 84.208 116.111 83.816L117.007 84.292C116.858 84.628 116.629 84.9407 116.321 85.23C116.013 85.51 115.644 85.7387 115.215 85.916C114.795 86.084 114.328 86.168 113.815 86.168ZM121.766 86.168C121.048 86.168 120.418 85.986 119.876 85.622C119.335 85.258 118.943 84.7633 118.7 84.138L119.582 83.718C119.797 84.1753 120.096 84.5393 120.478 84.81C120.87 85.0807 121.3 85.216 121.766 85.216C122.214 85.216 122.592 85.1087 122.9 84.894C123.208 84.67 123.362 84.3807 123.362 84.026C123.362 83.7647 123.288 83.5593 123.138 83.41C122.989 83.2513 122.816 83.13 122.62 83.046C122.424 82.962 122.252 82.9013 122.102 82.864L121.024 82.556C120.334 82.36 119.834 82.0847 119.526 81.73C119.218 81.3753 119.064 80.9647 119.064 80.498C119.064 80.0593 119.176 79.6767 119.4 79.35C119.624 79.0233 119.928 78.7713 120.31 78.594C120.693 78.4167 121.118 78.328 121.584 78.328C122.219 78.328 122.793 78.496 123.306 78.832C123.829 79.1587 124.198 79.616 124.412 80.204L123.516 80.624C123.33 80.204 123.059 79.8773 122.704 79.644C122.359 79.4013 121.972 79.28 121.542 79.28C121.122 79.28 120.786 79.3873 120.534 79.602C120.282 79.8167 120.156 80.0873 120.156 80.414C120.156 80.666 120.222 80.8667 120.352 81.016C120.483 81.1653 120.632 81.2773 120.8 81.352C120.978 81.4267 121.132 81.4827 121.262 81.52L122.508 81.884C123.115 82.0613 123.586 82.3367 123.922 82.71C124.268 83.0833 124.44 83.522 124.44 84.026C124.44 84.4367 124.324 84.8053 124.09 85.132C123.866 85.4587 123.554 85.7153 123.152 85.902C122.751 86.0793 122.289 86.168 121.766 86.168ZM129.039 86.168C128.321 86.168 127.691 85.986 127.149 85.622C126.608 85.258 126.216 84.7633 125.973 84.138L126.855 83.718C127.07 84.1753 127.369 84.5393 127.751 84.81C128.143 85.0807 128.573 85.216 129.039 85.216C129.487 85.216 129.865 85.1087 130.173 84.894C130.481 84.67 130.635 84.3807 130.635 84.026C130.635 83.7647 130.561 83.5593 130.411 83.41C130.262 83.2513 130.089 83.13 129.893 83.046C129.697 82.962 129.525 82.9013 129.375 82.864L128.297 82.556C127.607 82.36 127.107 82.0847 126.799 81.73C126.491 81.3753 126.337 80.9647 126.337 80.498C126.337 80.0593 126.449 79.6767 126.673 79.35C126.897 79.0233 127.201 78.7713 127.583 78.594C127.966 78.4167 128.391 78.328 128.857 78.328C129.492 78.328 130.066 78.496 130.579 78.832C131.102 79.1587 131.471 79.616 131.685 80.204L130.789 80.624C130.603 80.204 130.332 79.8773 129.977 79.644C129.632 79.4013 129.245 79.28 128.815 79.28C128.395 79.28 128.059 79.3873 127.807 79.602C127.555 79.8167 127.429 80.0873 127.429 80.414C127.429 80.666 127.495 80.8667 127.625 81.016C127.756 81.1653 127.905 81.2773 128.073 81.352C128.251 81.4267 128.405 81.4827 128.535 81.52L129.781 81.884C130.388 82.0613 130.859 82.3367 131.195 82.71C131.541 83.0833 131.713 83.522 131.713 84.026C131.713 84.4367 131.597 84.8053 131.363 85.132C131.139 85.4587 130.827 85.7153 130.425 85.902C130.024 86.0793 129.562 86.168 129.039 86.168ZM136.391 89.08C136.242 89.08 136.088 89.066 135.929 89.038C135.78 89.0193 135.631 88.982 135.481 88.926V87.946C135.575 87.9553 135.691 87.9693 135.831 87.988C135.981 88.016 136.13 88.03 136.279 88.03C136.737 88.03 137.087 87.932 137.329 87.736C137.572 87.5493 137.81 87.1853 138.043 86.644L138.519 85.524L138.491 86.448L135.313 78.496H136.447L139.051 85.062H138.757L141.347 78.496H142.509L139.079 86.952C138.93 87.316 138.739 87.6613 138.505 87.988C138.281 88.3147 137.997 88.576 137.651 88.772C137.306 88.9773 136.886 89.08 136.391 89.08ZM147.271 86.168C146.561 86.168 145.917 86 145.339 85.664C144.76 85.3187 144.298 84.852 143.953 84.264C143.617 83.6667 143.449 82.99 143.449 82.234C143.449 81.4873 143.617 80.82 143.953 80.232C144.289 79.644 144.741 79.182 145.311 78.846C145.889 78.5007 146.543 78.328 147.271 78.328C147.999 78.328 148.647 78.496 149.217 78.832C149.795 79.168 150.248 79.63 150.575 80.218C150.911 80.806 151.079 81.478 151.079 82.234C151.079 82.9993 150.906 83.6807 150.561 84.278C150.215 84.866 149.753 85.328 149.175 85.664C148.605 86 147.971 86.168 147.271 86.168ZM147.271 85.118C147.775 85.118 148.227 84.992 148.629 84.74C149.039 84.488 149.361 84.1427 149.595 83.704C149.837 83.2653 149.959 82.7753 149.959 82.234C149.959 81.6927 149.837 81.2073 149.595 80.778C149.361 80.3487 149.039 80.008 148.629 79.756C148.227 79.504 147.775 79.378 147.271 79.378C146.767 79.378 146.309 79.504 145.899 79.756C145.497 80.008 145.175 80.3487 144.933 80.778C144.69 81.2073 144.569 81.6927 144.569 82.234C144.569 82.7753 144.69 83.2653 144.933 83.704C145.175 84.1427 145.497 84.488 145.899 84.74C146.309 84.992 146.767 85.118 147.271 85.118ZM155.74 86.168C155.218 86.168 154.742 86.0467 154.312 85.804C153.883 85.552 153.542 85.2067 153.29 84.768C153.048 84.32 152.926 83.8067 152.926 83.228V78.496H153.976V83.102C153.976 83.5033 154.056 83.858 154.214 84.166C154.382 84.4647 154.611 84.698 154.9 84.866C155.199 85.034 155.54 85.118 155.922 85.118C156.305 85.118 156.646 85.034 156.944 84.866C157.243 84.6887 157.476 84.4413 157.644 84.124C157.812 83.7973 157.896 83.41 157.896 82.962V78.496H158.946V86H157.896V84.544L158.134 84.6C157.957 85.0853 157.654 85.468 157.224 85.748C156.795 86.028 156.3 86.168 155.74 86.168ZM161.256 86V78.496H162.306V79.728L162.166 79.546C162.343 79.1913 162.609 78.9113 162.964 78.706C163.328 78.5007 163.766 78.398 164.28 78.398H164.756V79.448H164.098C163.556 79.448 163.122 79.616 162.796 79.952C162.469 80.288 162.306 80.764 162.306 81.38V86H161.256ZM172.095 86.168C171.358 86.168 170.709 85.9953 170.149 85.65C169.589 85.3047 169.15 84.838 168.833 84.25C168.516 83.6527 168.357 82.9807 168.357 82.234C168.357 81.4873 168.516 80.82 168.833 80.232C169.15 79.644 169.589 79.182 170.149 78.846C170.709 78.5007 171.358 78.328 172.095 78.328C172.562 78.328 173 78.412 173.411 78.58C173.822 78.748 174.186 78.9767 174.503 79.266C174.82 79.546 175.058 79.8727 175.217 80.246L174.265 80.736C174.078 80.3347 173.794 80.008 173.411 79.756C173.028 79.504 172.59 79.378 172.095 79.378C171.6 79.378 171.152 79.504 170.751 79.756C170.359 79.9987 170.046 80.3393 169.813 80.778C169.589 81.2073 169.477 81.6973 169.477 82.248C169.477 82.7893 169.589 83.2793 169.813 83.718C170.046 84.1473 170.359 84.488 170.751 84.74C171.152 84.992 171.6 85.118 172.095 85.118C172.59 85.118 173.024 84.992 173.397 84.74C173.78 84.488 174.069 84.152 174.265 83.732L175.217 84.25C175.058 84.614 174.82 84.9407 174.503 85.23C174.186 85.5193 173.822 85.748 173.411 85.916C173 86.084 172.562 86.168 172.095 86.168ZM180.724 86.168C180.014 86.168 179.37 86 178.792 85.664C178.213 85.3187 177.751 84.852 177.406 84.264C177.07 83.6667 176.902 82.99 176.902 82.234C176.902 81.4873 177.07 80.82 177.406 80.232C177.742 79.644 178.194 79.182 178.764 78.846C179.342 78.5007 179.996 78.328 180.724 78.328C181.452 78.328 182.1 78.496 182.67 78.832C183.248 79.168 183.701 79.63 184.028 80.218C184.364 80.806 184.532 81.478 184.532 82.234C184.532 82.9993 184.359 83.6807 184.014 84.278C183.668 84.866 183.206 85.328 182.628 85.664C182.058 86 181.424 86.168 180.724 86.168ZM180.724 85.118C181.228 85.118 181.68 84.992 182.082 84.74C182.492 84.488 182.814 84.1427 183.048 83.704C183.29 83.2653 183.412 82.7753 183.412 82.234C183.412 81.6927 183.29 81.2073 183.048 80.778C182.814 80.3487 182.492 80.008 182.082 79.756C181.68 79.504 181.228 79.378 180.724 79.378C180.22 79.378 179.762 79.504 179.352 79.756C178.95 80.008 178.628 80.3487 178.386 80.778C178.143 81.2073 178.022 81.6927 178.022 82.234C178.022 82.7753 178.143 83.2653 178.386 83.704C178.628 84.1427 178.95 84.488 179.352 84.74C179.762 84.992 180.22 85.118 180.724 85.118ZM186.533 86V78.496H187.583V79.924L187.415 79.714C187.621 79.2753 187.924 78.9347 188.325 78.692C188.736 78.4493 189.184 78.328 189.669 78.328C190.248 78.328 190.771 78.4913 191.237 78.818C191.704 79.1447 192.035 79.5693 192.231 80.092L191.937 80.106C192.124 79.5273 192.446 79.0887 192.903 78.79C193.37 78.482 193.883 78.328 194.443 78.328C194.947 78.328 195.409 78.4493 195.829 78.692C196.259 78.9347 196.599 79.2707 196.851 79.7C197.113 80.12 197.243 80.596 197.243 81.128V86H196.193V81.534C196.193 81.0767 196.109 80.6893 195.941 80.372C195.783 80.0547 195.563 79.812 195.283 79.644C195.003 79.4667 194.681 79.378 194.317 79.378C193.963 79.378 193.641 79.4667 193.351 79.644C193.062 79.812 192.833 80.0593 192.665 80.386C192.497 80.7033 192.413 81.086 192.413 81.534V86H191.363V81.534C191.363 81.0767 191.279 80.6893 191.111 80.372C190.953 80.0547 190.733 79.812 190.453 79.644C190.173 79.4667 189.851 79.378 189.487 79.378C189.123 79.378 188.797 79.4667 188.507 79.644C188.227 79.812 188.003 80.0593 187.835 80.386C187.667 80.7033 187.583 81.086 187.583 81.534V86H186.533ZM199.398 88.8V78.496H200.448V80.176L200.28 79.882C200.579 79.406 200.976 79.028 201.47 78.748C201.974 78.468 202.548 78.328 203.192 78.328C203.902 78.328 204.532 78.5007 205.082 78.846C205.642 79.182 206.081 79.644 206.398 80.232C206.725 80.82 206.888 81.492 206.888 82.248C206.888 82.9947 206.725 83.6667 206.398 84.264C206.081 84.852 205.642 85.3187 205.082 85.664C204.532 86 203.902 86.168 203.192 86.168C202.548 86.168 201.965 86.0233 201.442 85.734C200.929 85.4353 200.542 85.0153 200.28 84.474L200.448 84.32V88.8H199.398ZM203.136 85.118C203.64 85.118 204.088 84.992 204.48 84.74C204.882 84.488 205.194 84.1473 205.418 83.718C205.652 83.2793 205.768 82.7893 205.768 82.248C205.768 81.6973 205.652 81.2073 205.418 80.778C205.194 80.3487 204.882 80.008 204.48 79.756C204.088 79.504 203.64 79.378 203.136 79.378C202.632 79.378 202.175 79.504 201.764 79.756C201.363 80.008 201.041 80.3533 200.798 80.792C200.565 81.2213 200.448 81.7067 200.448 82.248C200.448 82.7893 200.565 83.2793 200.798 83.718C201.041 84.1473 201.363 84.488 201.764 84.74C202.175 84.992 202.632 85.118 203.136 85.118ZM211.056 86.168C210.58 86.168 210.156 86.0793 209.782 85.902C209.409 85.7153 209.115 85.4633 208.9 85.146C208.686 84.8287 208.578 84.4647 208.578 84.054C208.578 83.662 208.662 83.3073 208.83 82.99C208.998 82.6633 209.26 82.388 209.614 82.164C209.969 81.94 210.422 81.7813 210.972 81.688L213.912 81.198V82.15L211.224 82.598C210.683 82.6913 210.291 82.864 210.048 83.116C209.815 83.368 209.698 83.6667 209.698 84.012C209.698 84.348 209.829 84.6327 210.09 84.866C210.361 85.0993 210.706 85.216 211.126 85.216C211.64 85.216 212.088 85.1087 212.47 84.894C212.853 84.67 213.152 84.3713 213.366 83.998C213.581 83.6247 213.688 83.2093 213.688 82.752V80.848C213.688 80.4 213.525 80.036 213.198 79.756C212.872 79.476 212.447 79.336 211.924 79.336C211.467 79.336 211.066 79.4527 210.72 79.686C210.375 79.91 210.118 80.204 209.95 80.568L208.998 80.05C209.138 79.7327 209.358 79.4433 209.656 79.182C209.964 78.9207 210.314 78.7153 210.706 78.566C211.098 78.4073 211.504 78.328 211.924 78.328C212.475 78.328 212.96 78.4353 213.38 78.65C213.81 78.8647 214.141 79.1633 214.374 79.546C214.617 79.9193 214.738 80.3533 214.738 80.848V86H213.688V84.502L213.842 84.656C213.712 84.936 213.506 85.1927 213.226 85.426C212.956 85.65 212.634 85.832 212.26 85.972C211.896 86.1027 211.495 86.168 211.056 86.168ZM217.048 86V78.496H218.098V79.952L217.86 79.896C218.047 79.4107 218.35 79.028 218.77 78.748C219.199 78.468 219.694 78.328 220.254 78.328C220.786 78.328 221.262 78.4493 221.682 78.692C222.111 78.9347 222.447 79.2707 222.69 79.7C222.942 80.12 223.068 80.596 223.068 81.128V86H222.018V81.534C222.018 81.0767 221.934 80.6893 221.766 80.372C221.607 80.0547 221.379 79.812 221.08 79.644C220.791 79.4667 220.455 79.378 220.072 79.378C219.689 79.378 219.349 79.4667 219.05 79.644C218.751 79.812 218.518 80.0593 218.35 80.386C218.182 80.7033 218.098 81.086 218.098 81.534V86H217.048ZM225.241 89.08C225.091 89.08 224.937 89.066 224.779 89.038C224.629 89.0193 224.48 88.982 224.331 88.926V87.946C224.424 87.9553 224.541 87.9693 224.681 87.988C224.83 88.016 224.979 88.03 225.129 88.03C225.586 88.03 225.936 87.932 226.179 87.736C226.421 87.5493 226.659 87.1853 226.893 86.644L227.369 85.524L227.341 86.448L224.163 78.496H225.297L227.901 85.062H227.607L230.197 78.496H231.359L227.929 86.952C227.779 87.316 227.588 87.6613 227.355 87.988C227.131 88.3147 226.846 88.576 226.501 88.772C226.155 88.9773 225.735 89.08 225.241 89.08ZM236.923 86L234.347 78.496H235.537L237.665 85.062H237.245L239.247 78.496H240.297L242.299 85.062H241.879L244.021 78.496H245.197L242.621 86H241.571L239.625 79.574H239.919L237.973 86H236.923ZM249.955 86.168C249.246 86.168 248.602 86 248.023 85.664C247.444 85.3187 246.982 84.852 246.637 84.264C246.301 83.6667 246.133 82.99 246.133 82.234C246.133 81.4873 246.301 80.82 246.637 80.232C246.973 79.644 247.426 79.182 247.995 78.846C248.574 78.5007 249.227 78.328 249.955 78.328C250.683 78.328 251.332 78.496 251.901 78.832C252.48 79.168 252.932 79.63 253.259 80.218C253.595 80.806 253.763 81.478 253.763 82.234C253.763 82.9993 253.59 83.6807 253.245 84.278C252.9 84.866 252.438 85.328 251.859 85.664C251.29 86 250.655 86.168 249.955 86.168ZM249.955 85.118C250.459 85.118 250.912 84.992 251.313 84.74C251.724 84.488 252.046 84.1427 252.279 83.704C252.522 83.2653 252.643 82.7753 252.643 82.234C252.643 81.6927 252.522 81.2073 252.279 80.778C252.046 80.3487 251.724 80.008 251.313 79.756C250.912 79.504 250.459 79.378 249.955 79.378C249.451 79.378 248.994 79.504 248.583 79.756C248.182 80.008 247.86 80.3487 247.617 80.778C247.374 81.2073 247.253 81.6927 247.253 82.234C247.253 82.7753 247.374 83.2653 247.617 83.704C247.86 84.1427 248.182 84.488 248.583 84.74C248.994 84.992 249.451 85.118 249.955 85.118ZM255.765 86V78.496H256.815V79.728L256.675 79.546C256.852 79.1913 257.118 78.9113 257.473 78.706C257.837 78.5007 258.275 78.398 258.789 78.398H259.265V79.448H258.607C258.065 79.448 257.631 79.616 257.305 79.952C256.978 80.288 256.815 80.764 256.815 81.38V86H255.765ZM260.645 86V75.402H261.695V82.822L261.247 82.752L265.461 78.496H266.819L263.879 81.506L267.085 86H265.825L262.815 81.842L263.487 81.898L261.345 84.11L261.695 83.242V86H260.645ZM271.069 86.168C270.35 86.168 269.72 85.986 269.179 85.622C268.638 85.258 268.246 84.7633 268.003 84.138L268.885 83.718C269.1 84.1753 269.398 84.5393 269.781 84.81C270.173 85.0807 270.602 85.216 271.069 85.216C271.517 85.216 271.895 85.1087 272.203 84.894C272.511 84.67 272.665 84.3807 272.665 84.026C272.665 83.7647 272.59 83.5593 272.441 83.41C272.292 83.2513 272.119 83.13 271.923 83.046C271.727 82.962 271.554 82.9013 271.405 82.864L270.327 82.556C269.636 82.36 269.137 82.0847 268.829 81.73C268.521 81.3753 268.367 80.9647 268.367 80.498C268.367 80.0593 268.479 79.6767 268.703 79.35C268.927 79.0233 269.23 78.7713 269.613 78.594C269.996 78.4167 270.42 78.328 270.887 78.328C271.522 78.328 272.096 78.496 272.609 78.832C273.132 79.1587 273.5 79.616 273.715 80.204L272.819 80.624C272.632 80.204 272.362 79.8773 272.007 79.644C271.662 79.4013 271.274 79.28 270.845 79.28C270.425 79.28 270.089 79.3873 269.837 79.602C269.585 79.8167 269.459 80.0873 269.459 80.414C269.459 80.666 269.524 80.8667 269.655 81.016C269.786 81.1653 269.935 81.2773 270.103 81.352C270.28 81.4267 270.434 81.4827 270.565 81.52L271.811 81.884C272.418 82.0613 272.889 82.3367 273.225 82.71C273.57 83.0833 273.743 83.522 273.743 84.026C273.743 84.4367 273.626 84.8053 273.393 85.132C273.169 85.4587 272.856 85.7153 272.455 85.902C272.054 86.0793 271.592 86.168 271.069 86.168ZM275.738 88.8V78.496H276.788V80.176L276.62 79.882C276.919 79.406 277.315 79.028 277.81 78.748C278.314 78.468 278.888 78.328 279.532 78.328C280.241 78.328 280.871 78.5007 281.422 78.846C281.982 79.182 282.421 79.644 282.738 80.232C283.065 80.82 283.228 81.492 283.228 82.248C283.228 82.9947 283.065 83.6667 282.738 84.264C282.421 84.852 281.982 85.3187 281.422 85.664C280.871 86 280.241 86.168 279.532 86.168C278.888 86.168 278.305 86.0233 277.782 85.734C277.269 85.4353 276.881 85.0153 276.62 84.474L276.788 84.32V88.8H275.738ZM279.476 85.118C279.98 85.118 280.428 84.992 280.82 84.74C281.221 84.488 281.534 84.1473 281.758 83.718C281.991 83.2793 282.108 82.7893 282.108 82.248C282.108 81.6973 281.991 81.2073 281.758 80.778C281.534 80.3487 281.221 80.008 280.82 79.756C280.428 79.504 279.98 79.378 279.476 79.378C278.972 79.378 278.515 79.504 278.104 79.756C277.703 80.008 277.381 80.3533 277.138 80.792C276.905 81.2213 276.788 81.7067 276.788 82.248C276.788 82.7893 276.905 83.2793 277.138 83.718C277.381 84.1473 277.703 84.488 278.104 84.74C278.515 84.992 278.972 85.118 279.476 85.118ZM287.396 86.168C286.92 86.168 286.495 86.0793 286.122 85.902C285.749 85.7153 285.455 85.4633 285.24 85.146C285.025 84.8287 284.918 84.4647 284.918 84.054C284.918 83.662 285.002 83.3073 285.17 82.99C285.338 82.6633 285.599 82.388 285.954 82.164C286.309 81.94 286.761 81.7813 287.312 81.688L290.252 81.198V82.15L287.564 82.598C287.023 82.6913 286.631 82.864 286.388 83.116C286.155 83.368 286.038 83.6667 286.038 84.012C286.038 84.348 286.169 84.6327 286.43 84.866C286.701 85.0993 287.046 85.216 287.466 85.216C287.979 85.216 288.427 85.1087 288.81 84.894C289.193 84.67 289.491 84.3713 289.706 83.998C289.921 83.6247 290.028 83.2093 290.028 82.752V80.848C290.028 80.4 289.865 80.036 289.538 79.756C289.211 79.476 288.787 79.336 288.264 79.336C287.807 79.336 287.405 79.4527 287.06 79.686C286.715 79.91 286.458 80.204 286.29 80.568L285.338 80.05C285.478 79.7327 285.697 79.4433 285.996 79.182C286.304 78.9207 286.654 78.7153 287.046 78.566C287.438 78.4073 287.844 78.328 288.264 78.328C288.815 78.328 289.3 78.4353 289.72 78.65C290.149 78.8647 290.481 79.1633 290.714 79.546C290.957 79.9193 291.078 80.3533 291.078 80.848V86H290.028V84.502L290.182 84.656C290.051 84.936 289.846 85.1927 289.566 85.426C289.295 85.65 288.973 85.832 288.6 85.972C288.236 86.1027 287.835 86.168 287.396 86.168ZM296.818 86.168C296.08 86.168 295.432 85.9953 294.872 85.65C294.312 85.3047 293.873 84.838 293.556 84.25C293.238 83.6527 293.08 82.9807 293.08 82.234C293.08 81.4873 293.238 80.82 293.556 80.232C293.873 79.644 294.312 79.182 294.872 78.846C295.432 78.5007 296.08 78.328 296.818 78.328C297.284 78.328 297.723 78.412 298.134 78.58C298.544 78.748 298.908 78.9767 299.226 79.266C299.543 79.546 299.781 79.8727 299.94 80.246L298.988 80.736C298.801 80.3347 298.516 80.008 298.134 79.756C297.751 79.504 297.312 79.378 296.818 79.378C296.323 79.378 295.875 79.504 295.474 79.756C295.082 79.9987 294.769 80.3393 294.536 80.778C294.312 81.2073 294.2 81.6973 294.2 82.248C294.2 82.7893 294.312 83.2793 294.536 83.718C294.769 84.1473 295.082 84.488 295.474 84.74C295.875 84.992 296.323 85.118 296.818 85.118C297.312 85.118 297.746 84.992 298.12 84.74C298.502 84.488 298.792 84.152 298.988 83.732L299.94 84.25C299.781 84.614 299.543 84.9407 299.226 85.23C298.908 85.5193 298.544 85.748 298.134 85.916C297.723 86.084 297.284 86.168 296.818 86.168ZM305.348 86.168C304.648 86.168 304.014 86 303.444 85.664C302.884 85.3187 302.441 84.8473 302.114 84.25C301.788 83.6527 301.624 82.976 301.624 82.22C301.624 81.464 301.783 80.7967 302.1 80.218C302.418 79.63 302.847 79.168 303.388 78.832C303.939 78.496 304.555 78.328 305.236 78.328C305.778 78.328 306.258 78.4307 306.678 78.636C307.108 78.832 307.472 79.1027 307.77 79.448C308.069 79.784 308.298 80.1667 308.456 80.596C308.615 81.016 308.694 81.45 308.694 81.898C308.694 81.9913 308.69 82.0987 308.68 82.22C308.671 82.332 308.657 82.4487 308.638 82.57H302.296V81.59H308.036L307.532 82.01C307.616 81.4967 307.556 81.0393 307.35 80.638C307.154 80.2273 306.87 79.9053 306.496 79.672C306.123 79.4293 305.703 79.308 305.236 79.308C304.77 79.308 304.336 79.4293 303.934 79.672C303.542 79.9147 303.234 80.2553 303.01 80.694C302.786 81.1233 302.698 81.6367 302.744 82.234C302.698 82.8313 302.791 83.354 303.024 83.802C303.267 84.2407 303.594 84.5813 304.004 84.824C304.424 85.0667 304.872 85.188 305.348 85.188C305.899 85.188 306.361 85.0573 306.734 84.796C307.108 84.5347 307.411 84.208 307.644 83.816L308.54 84.292C308.391 84.628 308.162 84.9407 307.854 85.23C307.546 85.51 307.178 85.7387 306.748 85.916C306.328 86.084 305.862 86.168 305.348 86.168ZM311.06 86V84.46H312.18V86H311.06Z" fill="#FAFAFA"/>
<g filter="url(#filter1_dd_1_1298)">
<path d="M24 120C24 116.686 26.6863 114 30 114H382C385.314 114 388 116.686 388 120V148C388 151.314 385.314 154 382 154H30C26.6863 154 24 151.314 24 148V120Z" fill="#09090B"/>
<path d="M382 113.5L382.335 113.509C385.769 113.683 388.5 116.522 388.5 120V148C388.5 151.59 385.59 154.5 382 154.5H30C26.4102 154.5 23.5 151.59 23.5 148V120C23.5 116.41 26.4101 113.5 30 113.5H382Z" stroke="#3F3F46"/>
<path fill-rule="evenodd" clip-rule="evenodd" d="M37.9999 130C37.9999 129.632 38.2984 129.333 38.6666 129.333H49.3333C49.7014 129.333 49.9999 129.632 49.9999 130V130.3L44.3326 133.902L44.3312 133.903C44.2318 133.965 44.117 133.997 43.9999 133.997C43.8828 133.997 43.7681 133.965 43.6687 133.903L37.9999 130.3V130ZM36.6666 130.655C36.6665 130.663 36.6665 130.67 36.6666 130.677V138C36.6666 139.105 37.562 140 38.6666 140H49.3333C50.4378 140 51.3333 139.105 51.3333 138V130.677C51.3334 130.67 51.3334 130.662 51.3333 130.655V130C51.3333 128.895 50.4378 128 49.3333 128H38.6666C37.562 128 36.6666 128.895 36.6666 130V130.655ZM49.9999 131.88V138C49.9999 138.368 49.7014 138.667 49.3333 138.667H38.6666C38.2984 138.667 37.9999 138.368 37.9999 138V131.88L42.9557 135.029L42.9557 135.029L42.9593 135.032C43.2712 135.227 43.6318 135.331 43.9999 135.331C44.368 135.331 44.7286 135.227 45.0405 135.032L45.0405 135.032L45.0441 135.029L49.9999 131.88Z" fill="#FAFAFA"/>
<path d="M65.0739 139V131.364H66.2074V132.557H66.3068C66.4659 132.149 66.7228 131.833 67.0774 131.607C67.4321 131.379 67.858 131.264 68.3551 131.264C68.8589 131.264 69.2782 131.379 69.6129 131.607C69.951 131.833 70.2145 132.149 70.4034 132.557H70.483C70.6785 132.162 70.9718 131.849 71.3629 131.617C71.754 131.382 72.223 131.264 72.7699 131.264C73.4527 131.264 74.0111 131.478 74.4453 131.906C74.8795 132.33 75.0966 132.991 75.0966 133.889V139H73.9233V133.889C73.9233 133.326 73.7692 132.923 73.4609 132.681C73.1527 132.439 72.7898 132.318 72.3722 132.318C71.8352 132.318 71.4193 132.481 71.1243 132.805C70.8293 133.127 70.6818 133.535 70.6818 134.028V139H69.4886V133.77C69.4886 133.336 69.3478 132.986 69.0661 132.721C68.7843 132.452 68.4214 132.318 67.9773 132.318C67.6723 132.318 67.3873 132.399 67.1222 132.562C66.8603 132.724 66.6482 132.95 66.4858 133.238C66.3267 133.523 66.2472 133.853 66.2472 134.227V139H65.0739ZM77.2418 139V131.364H78.4151V139H77.2418ZM77.8384 130.091C77.6097 130.091 77.4125 130.013 77.2468 129.857C77.0844 129.701 77.0032 129.514 77.0032 129.295C77.0032 129.077 77.0844 128.889 77.2468 128.734C77.4125 128.578 77.6097 128.5 77.8384 128.5C78.0671 128.5 78.2627 128.578 78.4251 128.734C78.5908 128.889 78.6737 129.077 78.6737 129.295C78.6737 129.514 78.5908 129.701 78.4251 129.857C78.2627 130.013 78.0671 130.091 77.8384 130.091ZM81.6578 136.216L81.638 134.764H81.8766L85.2175 131.364H86.6692L83.1096 134.963H83.0101L81.6578 136.216ZM80.5641 139V128.818H81.7374V139H80.5641ZM85.4164 139L82.4334 135.222L83.2686 134.406L86.9078 139H85.4164ZM90.9672 139.159C90.2778 139.159 89.6729 138.995 89.1525 138.667C88.6355 138.339 88.2311 137.88 87.9395 137.29C87.6511 136.7 87.5069 136.01 87.5069 135.222C87.5069 134.426 87.6511 133.732 87.9395 133.138C88.2311 132.545 88.6355 132.085 89.1525 131.756C89.6729 131.428 90.2778 131.264 90.9672 131.264C91.6565 131.264 92.2598 131.428 92.7768 131.756C93.2972 132.085 93.7015 132.545 93.9899 133.138C94.2815 133.732 94.4274 134.426 94.4274 135.222C94.4274 136.01 94.2815 136.7 93.9899 137.29C93.7015 137.88 93.2972 138.339 92.7768 138.667C92.2598 138.995 91.6565 139.159 90.9672 139.159ZM90.9672 138.105C91.4908 138.105 91.9217 137.971 92.2598 137.702C92.5978 137.434 92.8481 137.081 93.0105 136.643C93.1729 136.206 93.2541 135.732 93.2541 135.222C93.2541 134.711 93.1729 134.236 93.0105 133.795C92.8481 133.354 92.5978 132.998 92.2598 132.726C91.9217 132.454 91.4908 132.318 90.9672 132.318C90.4435 132.318 90.0126 132.454 89.6745 132.726C89.3365 132.998 89.0862 133.354 88.9238 133.795C88.7614 134.236 88.6802 134.711 88.6802 135.222C88.6802 135.732 88.7614 136.206 88.9238 136.643C89.0862 137.081 89.3365 137.434 89.6745 137.702C90.0126 137.971 90.4435 138.105 90.9672 138.105ZM97.3917 128.818V139H96.2184V128.818H97.3917ZM101.788 139.179C101.304 139.179 100.865 139.088 100.47 138.906C100.076 138.72 99.7627 138.453 99.5307 138.105C99.2987 137.754 99.1827 137.33 99.1827 136.832C99.1827 136.395 99.2689 136.04 99.4412 135.768C99.6136 135.493 99.8439 135.278 100.132 135.122C100.421 134.966 100.739 134.85 101.087 134.774C101.438 134.695 101.791 134.632 102.146 134.585C102.61 134.526 102.986 134.481 103.274 134.451C103.566 134.418 103.778 134.363 103.911 134.287C104.047 134.211 104.115 134.078 104.115 133.889V133.849C104.115 133.359 103.98 132.978 103.712 132.706C103.447 132.434 103.044 132.298 102.504 132.298C101.944 132.298 101.504 132.421 101.186 132.666C100.868 132.911 100.644 133.173 100.515 133.452L99.4015 133.054C99.6003 132.59 99.8655 132.229 100.197 131.97C100.532 131.708 100.896 131.526 101.291 131.423C101.688 131.317 102.079 131.264 102.464 131.264C102.709 131.264 102.991 131.294 103.309 131.354C103.631 131.41 103.941 131.528 104.239 131.707C104.54 131.886 104.791 132.156 104.99 132.517C105.188 132.878 105.288 133.362 105.288 133.969V139H104.115V137.966H104.055C103.975 138.132 103.843 138.309 103.657 138.498C103.472 138.687 103.225 138.848 102.916 138.98C102.608 139.113 102.232 139.179 101.788 139.179ZM101.967 138.125C102.431 138.125 102.822 138.034 103.14 137.852C103.462 137.669 103.704 137.434 103.866 137.146C104.032 136.857 104.115 136.554 104.115 136.236V135.162C104.065 135.222 103.955 135.276 103.786 135.326C103.621 135.372 103.428 135.414 103.21 135.45C102.994 135.483 102.784 135.513 102.578 135.54C102.376 135.563 102.212 135.583 102.086 135.599C101.781 135.639 101.496 135.704 101.231 135.793C100.969 135.879 100.757 136.01 100.595 136.186C100.436 136.358 100.356 136.594 100.356 136.892C100.356 137.3 100.507 137.608 100.808 137.817C101.113 138.022 101.499 138.125 101.967 138.125ZM107.429 131.364H108.603V139.557C108.603 140.027 108.521 140.435 108.359 140.78C108.2 141.125 107.958 141.391 107.633 141.58C107.312 141.769 106.906 141.864 106.415 141.864C106.375 141.864 106.336 141.864 106.296 141.864C106.256 141.864 106.216 141.864 106.176 141.864V140.77C106.216 140.77 106.253 140.77 106.286 140.77C106.319 140.77 106.355 140.77 106.395 140.77C106.753 140.77 107.015 140.664 107.181 140.452C107.346 140.243 107.429 139.945 107.429 139.557V131.364ZM108.006 130.091C107.777 130.091 107.58 130.013 107.414 129.857C107.252 129.701 107.171 129.514 107.171 129.295C107.171 129.077 107.252 128.889 107.414 128.734C107.58 128.578 107.777 128.5 108.006 128.5C108.235 128.5 108.43 128.578 108.593 128.734C108.758 128.889 108.841 129.077 108.841 129.295C108.841 129.514 108.758 129.701 108.593 129.857C108.43 130.013 108.235 130.091 108.006 130.091ZM111.607 139.08C111.361 139.08 111.151 138.992 110.975 138.816C110.8 138.64 110.712 138.43 110.712 138.185C110.712 137.939 110.8 137.729 110.975 137.553C111.151 137.378 111.361 137.29 111.607 137.29C111.852 137.29 112.062 137.378 112.238 137.553C112.414 137.729 112.502 137.939 112.502 138.185C112.502 138.347 112.46 138.496 112.377 138.632C112.298 138.768 112.19 138.877 112.054 138.96C111.922 139.04 111.772 139.08 111.607 139.08ZM115.78 134.406V139H114.607V131.364H115.741V132.557H115.84C116.019 132.169 116.291 131.857 116.655 131.622C117.02 131.384 117.491 131.264 118.067 131.264C118.584 131.264 119.037 131.37 119.425 131.582C119.812 131.791 120.114 132.109 120.329 132.537C120.545 132.961 120.653 133.498 120.653 134.148V139H119.479V134.227C119.479 133.627 119.323 133.16 119.012 132.825C118.7 132.487 118.273 132.318 117.729 132.318C117.355 132.318 117.02 132.399 116.725 132.562C116.433 132.724 116.203 132.961 116.034 133.273C115.865 133.584 115.78 133.962 115.78 134.406ZM122.797 139V131.364H123.97V139H122.797ZM123.393 130.091C123.164 130.091 122.967 130.013 122.801 129.857C122.639 129.701 122.558 129.514 122.558 129.295C122.558 129.077 122.639 128.889 122.801 128.734C122.967 128.578 123.164 128.5 123.393 128.5C123.622 128.5 123.817 128.578 123.98 128.734C124.145 128.889 124.228 129.077 124.228 129.295C124.228 129.514 124.145 129.701 123.98 129.857C123.817 130.013 123.622 130.091 123.393 130.091ZM125.9 139V138.105L130.235 132.537V132.457H126.039V131.364H131.747V132.298L127.531 137.827V137.906H131.886V139H125.9ZM134.866 134.406V139H133.693V131.364H134.827V132.557H134.926C135.105 132.169 135.377 131.857 135.741 131.622C136.106 131.384 136.577 131.264 137.153 131.264C137.67 131.264 138.123 131.37 138.51 131.582C138.898 131.791 139.2 132.109 139.415 132.537C139.631 132.961 139.738 133.498 139.738 134.148V139H138.565V134.227C138.565 133.627 138.409 133.16 138.098 132.825C137.786 132.487 137.359 132.318 136.815 132.318C136.441 132.318 136.106 132.399 135.811 132.562C135.519 132.724 135.289 132.961 135.12 133.273C134.951 133.584 134.866 133.962 134.866 134.406ZM141.882 139V131.364H143.056V139H141.882ZM142.479 130.091C142.25 130.091 142.053 130.013 141.887 129.857C141.725 129.701 141.644 129.514 141.644 129.295C141.644 129.077 141.725 128.889 141.887 128.734C142.053 128.578 142.25 128.5 142.479 128.5C142.708 128.5 142.903 128.578 143.066 128.734C143.231 128.889 143.314 129.077 143.314 129.295C143.314 129.514 143.231 129.701 143.066 129.857C142.903 130.013 142.708 130.091 142.479 130.091ZM146.298 136.216L146.279 134.764H146.517L149.858 131.364H151.31L147.75 134.963H147.651L146.298 136.216ZM145.205 139V128.818H146.378V139H145.205ZM150.057 139L147.074 135.222L147.909 134.406L151.548 139H150.057ZM158.686 141.685C157.672 141.685 156.776 141.545 155.997 141.267C155.218 140.992 154.563 140.586 154.033 140.049C153.503 139.512 153.102 138.854 152.83 138.075C152.558 137.296 152.422 136.405 152.422 135.401C152.422 134.429 152.56 133.561 152.835 132.795C153.113 132.03 153.516 131.38 154.043 130.847C154.573 130.31 155.216 129.9 155.972 129.619C156.731 129.337 157.589 129.196 158.547 129.196C159.479 129.196 160.294 129.348 160.993 129.653C161.696 129.955 162.283 130.364 162.753 130.881C163.227 131.395 163.582 131.973 163.817 132.616C164.056 133.259 164.175 133.922 164.175 134.605C164.175 135.086 164.152 135.573 164.105 136.067C164.059 136.561 163.961 137.015 163.812 137.429C163.663 137.84 163.433 138.171 163.121 138.423C162.813 138.675 162.395 138.801 161.868 138.801C161.636 138.801 161.381 138.765 161.103 138.692C160.824 138.619 160.577 138.498 160.362 138.329C160.146 138.16 160.019 137.933 159.979 137.648H159.919C159.84 137.84 159.717 138.022 159.551 138.195C159.389 138.367 159.175 138.504 158.91 138.607C158.648 138.71 158.328 138.755 157.951 138.741C157.52 138.725 157.14 138.629 156.812 138.453C156.484 138.274 156.209 138.032 155.987 137.727C155.768 137.419 155.602 137.063 155.49 136.658C155.38 136.251 155.326 135.812 155.326 135.341C155.326 134.893 155.392 134.484 155.525 134.113C155.657 133.742 155.841 133.417 156.076 133.138C156.315 132.86 156.593 132.638 156.912 132.472C157.233 132.303 157.579 132.199 157.951 132.159C158.282 132.126 158.584 132.141 158.855 132.204C159.127 132.263 159.351 132.355 159.527 132.477C159.702 132.597 159.813 132.729 159.86 132.875H159.919V132.318H160.973V136.812C160.973 137.091 161.051 137.336 161.207 137.548C161.363 137.76 161.59 137.866 161.888 137.866C162.226 137.866 162.485 137.75 162.664 137.518C162.846 137.286 162.97 136.929 163.037 136.445C163.106 135.961 163.141 135.341 163.141 134.585C163.141 134.141 163.08 133.704 162.957 133.273C162.838 132.839 162.655 132.433 162.41 132.055C162.168 131.677 161.862 131.344 161.49 131.055C161.119 130.767 160.683 130.542 160.183 130.379C159.686 130.214 159.121 130.131 158.488 130.131C157.709 130.131 157.011 130.252 156.395 130.494C155.781 130.732 155.259 131.082 154.828 131.543C154.401 132 154.074 132.557 153.849 133.213C153.627 133.866 153.516 134.608 153.516 135.44C153.516 136.286 153.627 137.036 153.849 137.692C154.074 138.349 154.406 138.902 154.843 139.353C155.284 139.804 155.829 140.145 156.479 140.377C157.129 140.612 157.878 140.73 158.726 140.73C159.091 140.73 159.45 140.695 159.805 140.626C160.16 140.556 160.473 140.48 160.745 140.397C161.016 140.314 161.212 140.253 161.331 140.213L161.61 141.128C161.404 141.214 161.136 141.3 160.804 141.386C160.476 141.473 160.125 141.544 159.75 141.6C159.379 141.656 159.025 141.685 158.686 141.685ZM158.11 137.727C158.554 137.727 158.913 137.638 159.189 137.459C159.464 137.28 159.664 137.01 159.79 136.648C159.916 136.287 159.979 135.831 159.979 135.281C159.979 134.724 159.909 134.29 159.77 133.979C159.631 133.667 159.426 133.448 159.154 133.322C158.882 133.196 158.547 133.134 158.15 133.134C157.772 133.134 157.449 133.233 157.18 133.432C156.915 133.627 156.711 133.889 156.569 134.217C156.429 134.542 156.36 134.897 156.36 135.281C156.36 135.705 156.416 136.105 156.529 136.479C156.641 136.851 156.825 137.152 157.081 137.384C157.336 137.613 157.679 137.727 158.11 137.727ZM169.014 142.023C168.447 142.023 167.96 141.95 167.552 141.804C167.144 141.661 166.805 141.473 166.533 141.237C166.264 141.005 166.051 140.757 165.892 140.491L166.826 139.835C166.932 139.974 167.066 140.134 167.229 140.312C167.391 140.495 167.613 140.652 167.895 140.785C168.18 140.921 168.553 140.989 169.014 140.989C169.63 140.989 170.139 140.839 170.54 140.541C170.941 140.243 171.142 139.776 171.142 139.139V137.588H171.042C170.956 137.727 170.833 137.9 170.674 138.105C170.518 138.307 170.293 138.488 169.998 138.647C169.706 138.803 169.312 138.881 168.815 138.881C168.198 138.881 167.645 138.735 167.154 138.443C166.667 138.152 166.281 137.727 165.996 137.17C165.714 136.614 165.573 135.937 165.573 135.142C165.573 134.36 165.711 133.679 165.986 133.099C166.261 132.515 166.644 132.065 167.134 131.746C167.625 131.425 168.192 131.264 168.835 131.264C169.332 131.264 169.726 131.347 170.018 131.513C170.313 131.675 170.538 131.861 170.694 132.07C170.853 132.275 170.976 132.444 171.062 132.577H171.181V131.364H172.315V139.219C172.315 139.875 172.166 140.409 171.867 140.82C171.572 141.234 171.175 141.537 170.674 141.729C170.177 141.925 169.624 142.023 169.014 142.023ZM168.974 137.827C169.445 137.827 169.842 137.719 170.167 137.504C170.492 137.288 170.739 136.978 170.908 136.574C171.077 136.17 171.161 135.686 171.161 135.122C171.161 134.572 171.079 134.086 170.913 133.665C170.747 133.245 170.502 132.915 170.177 132.676C169.852 132.437 169.451 132.318 168.974 132.318C168.477 132.318 168.062 132.444 167.731 132.696C167.403 132.948 167.156 133.286 166.99 133.71C166.828 134.134 166.747 134.605 166.747 135.122C166.747 135.652 166.829 136.121 166.995 136.529C167.164 136.933 167.413 137.252 167.741 137.484C168.072 137.712 168.483 137.827 168.974 137.827ZM174.463 139V131.364H175.596V132.557H175.695C175.855 132.149 176.111 131.833 176.466 131.607C176.821 131.379 177.247 131.264 177.744 131.264C178.248 131.264 178.667 131.379 179.002 131.607C179.34 131.833 179.603 132.149 179.792 132.557H179.872C180.067 132.162 180.36 131.849 180.752 131.617C181.143 131.382 181.612 131.264 182.159 131.264C182.841 131.264 183.4 131.478 183.834 131.906C184.268 132.33 184.485 132.991 184.485 133.889V139H183.312V133.889C183.312 133.326 183.158 132.923 182.85 132.681C182.541 132.439 182.178 132.318 181.761 132.318C181.224 132.318 180.808 132.481 180.513 132.805C180.218 133.127 180.07 133.535 180.07 134.028V139H178.877V133.77C178.877 133.336 178.736 132.986 178.455 132.721C178.173 132.452 177.81 132.318 177.366 132.318C177.061 132.318 176.776 132.399 176.511 132.562C176.249 132.724 176.037 132.95 175.874 133.238C175.715 133.523 175.636 133.853 175.636 134.227V139H174.463ZM188.878 139.179C188.394 139.179 187.955 139.088 187.56 138.906C187.166 138.72 186.853 138.453 186.621 138.105C186.389 137.754 186.273 137.33 186.273 136.832C186.273 136.395 186.359 136.04 186.531 135.768C186.703 135.493 186.934 135.278 187.222 135.122C187.51 134.966 187.829 134.85 188.177 134.774C188.528 134.695 188.881 134.632 189.236 134.585C189.7 134.526 190.076 134.481 190.364 134.451C190.656 134.418 190.868 134.363 191.001 134.287C191.136 134.211 191.204 134.078 191.204 133.889V133.849C191.204 133.359 191.07 132.978 190.802 132.706C190.537 132.434 190.134 132.298 189.594 132.298C189.033 132.298 188.594 132.421 188.276 132.666C187.958 132.911 187.734 133.173 187.605 133.452L186.491 133.054C186.69 132.59 186.955 132.229 187.287 131.97C187.622 131.708 187.986 131.526 188.381 131.423C188.778 131.317 189.169 131.264 189.554 131.264C189.799 131.264 190.081 131.294 190.399 131.354C190.72 131.41 191.03 131.528 191.329 131.707C191.63 131.886 191.881 132.156 192.079 132.517C192.278 132.878 192.378 133.362 192.378 133.969V139H191.204V137.966H191.145C191.065 138.132 190.933 138.309 190.747 138.498C190.561 138.687 190.314 138.848 190.006 138.98C189.698 139.113 189.322 139.179 188.878 139.179ZM189.057 138.125C189.521 138.125 189.912 138.034 190.23 137.852C190.551 137.669 190.793 137.434 190.956 137.146C191.122 136.857 191.204 136.554 191.204 136.236V135.162C191.155 135.222 191.045 135.276 190.876 135.326C190.711 135.372 190.518 135.414 190.3 135.45C190.084 135.483 189.874 135.513 189.668 135.54C189.466 135.563 189.302 135.583 189.176 135.599C188.871 135.639 188.586 135.704 188.321 135.793C188.059 135.879 187.847 136.01 187.684 136.186C187.525 136.358 187.446 136.594 187.446 136.892C187.446 137.3 187.597 137.608 187.898 137.817C188.203 138.022 188.589 138.125 189.057 138.125ZM200.167 125.537V142.281H199.173V125.537H200.167Z" fill="#FAFAFA"/>
</g>
<path d="M382 171.5C385.59 171.5 388.5 174.41 388.5 178V206C388.5 209.59 385.59 212.5 382 212.5H30C26.4102 212.5 23.5 209.59 23.5 206V178C23.5 174.41 26.4101 171.5 30 171.5H382Z" fill="#09090B"/>
<path d="M382 171.5C385.59 171.5 388.5 174.41 388.5 178V206C388.5 209.59 385.59 212.5 382 212.5H30C26.4102 212.5 23.5 209.59 23.5 206V178C23.5 174.41 26.4101 171.5 30 171.5H382Z" stroke="#3F3F46"/>
<path fill-rule="evenodd" clip-rule="evenodd" d="M42.1144 186.781C42.6145 186.281 43.2928 186 44 186C44.7073 186 45.3855 186.281 45.8856 186.781C46.3857 187.281 46.6667 187.959 46.6667 188.667V190.667H41.3333V188.667C41.3333 187.959 41.6143 187.281 42.1144 186.781ZM40 190.667V188.667C40 187.606 40.4214 186.588 41.1716 185.838C41.9217 185.088 42.9391 184.667 44 184.667C45.0609 184.667 46.0783 185.088 46.8284 185.838C47.5786 186.588 48 187.606 48 188.667V190.667H48.6667C49.7712 190.667 50.6667 191.562 50.6667 192.667V197.333C50.6667 198.438 49.7712 199.333 48.6667 199.333H39.3333C38.2288 199.333 37.3333 198.438 37.3333 197.333V192.667C37.3333 191.562 38.2288 190.667 39.3333 190.667H40ZM47.3333 192H40.6667H39.3333C38.9652 192 38.6667 192.298 38.6667 192.667V197.333C38.6667 197.702 38.9652 198 39.3333 198H48.6667C49.0349 198 49.3333 197.702 49.3333 197.333V192.667C49.3333 192.298 49.0349 192 48.6667 192H47.3333Z" fill="#FAFAFA"/>
<path d="M65.233 197V186.818H68.6733C69.4721 186.818 70.125 186.962 70.6321 187.251C71.1425 187.536 71.5204 187.922 71.7656 188.409C72.0109 188.896 72.1335 189.44 72.1335 190.04C72.1335 190.64 72.0109 191.185 71.7656 191.675C71.5237 192.166 71.1491 192.557 70.642 192.849C70.1349 193.137 69.4853 193.281 68.6932 193.281H66.2273V192.188H68.6534C69.2003 192.188 69.6394 192.093 69.9709 191.904C70.3023 191.715 70.5426 191.46 70.6918 191.138C70.8442 190.814 70.9205 190.447 70.9205 190.04C70.9205 189.632 70.8442 189.268 70.6918 188.946C70.5426 188.625 70.3007 188.373 69.9659 188.19C69.6312 188.005 69.187 187.912 68.6335 187.912H66.4659V197H65.233ZM76.2077 197.179C75.7238 197.179 75.2847 197.088 74.8903 196.906C74.4959 196.72 74.1826 196.453 73.9506 196.105C73.7186 195.754 73.6026 195.33 73.6026 194.832C73.6026 194.395 73.6888 194.04 73.8612 193.768C74.0335 193.493 74.2638 193.278 74.5522 193.122C74.8406 192.966 75.1587 192.85 75.5067 192.774C75.8581 192.695 76.2111 192.632 76.5657 192.585C77.0297 192.526 77.4059 192.481 77.6942 192.451C77.9859 192.418 78.198 192.363 78.3306 192.287C78.4665 192.211 78.5344 192.078 78.5344 191.889V191.849C78.5344 191.359 78.4002 190.978 78.1317 190.706C77.8666 190.434 77.4639 190.298 76.9237 190.298C76.3635 190.298 75.9244 190.421 75.6062 190.666C75.288 190.911 75.0643 191.173 74.935 191.452L73.8214 191.054C74.0202 190.59 74.2854 190.229 74.6168 189.97C74.9516 189.708 75.3162 189.526 75.7106 189.423C76.1083 189.317 76.4994 189.264 76.8839 189.264C77.1291 189.264 77.4109 189.294 77.729 189.354C78.0505 189.41 78.3604 189.528 78.6587 189.707C78.9603 189.886 79.2106 190.156 79.4094 190.517C79.6083 190.878 79.7077 191.362 79.7077 191.969V197H78.5344V195.966H78.4748C78.3952 196.132 78.2627 196.309 78.0771 196.498C77.8915 196.687 77.6445 196.848 77.3363 196.98C77.0281 197.113 76.6519 197.179 76.2077 197.179ZM76.3867 196.125C76.8507 196.125 77.2418 196.034 77.56 195.852C77.8815 195.669 78.1235 195.434 78.2859 195.146C78.4516 194.857 78.5344 194.554 78.5344 194.236V193.162C78.4847 193.222 78.3754 193.276 78.2063 193.326C78.0406 193.372 77.8484 193.414 77.6296 193.45C77.4142 193.483 77.2037 193.513 76.9982 193.54C76.796 193.563 76.632 193.583 76.506 193.599C76.2011 193.639 75.9161 193.704 75.6509 193.793C75.3891 193.879 75.177 194.01 75.0146 194.186C74.8555 194.358 74.7759 194.594 74.7759 194.892C74.7759 195.3 74.9267 195.608 75.2283 195.817C75.5333 196.022 75.9194 196.125 76.3867 196.125ZM87.2583 191.074L86.2044 191.372C86.1381 191.196 86.0403 191.026 85.911 190.86C85.7851 190.691 85.6127 190.552 85.394 190.442C85.1752 190.333 84.8952 190.278 84.5538 190.278C84.0865 190.278 83.697 190.386 83.3855 190.602C83.0772 190.814 82.9231 191.084 82.9231 191.412C82.9231 191.704 83.0292 191.934 83.2413 192.103C83.4534 192.272 83.7849 192.413 84.2356 192.526L85.3691 192.804C86.0519 192.97 86.5607 193.223 86.8954 193.565C87.2302 193.903 87.3975 194.339 87.3975 194.872C87.3975 195.31 87.2716 195.701 87.0197 196.045C86.7711 196.39 86.4231 196.662 85.9757 196.861C85.5282 197.06 85.0079 197.159 84.4146 197.159C83.6357 197.159 82.9911 196.99 82.4806 196.652C81.9702 196.314 81.6471 195.82 81.5112 195.17L82.6248 194.892C82.7309 195.303 82.9314 195.611 83.2264 195.817C83.5247 196.022 83.9141 196.125 84.3947 196.125C84.9416 196.125 85.3758 196.009 85.6973 195.777C86.0221 195.542 86.1845 195.26 86.1845 194.932C86.1845 194.667 86.0917 194.445 85.9061 194.266C85.7205 194.083 85.4354 193.947 85.051 193.858L83.7782 193.56C83.0789 193.394 82.5652 193.137 82.237 192.789C81.9122 192.438 81.7498 191.999 81.7498 191.472C81.7498 191.041 81.8708 190.66 82.1127 190.328C82.358 189.997 82.6911 189.737 83.112 189.548C83.5363 189.359 84.0169 189.264 84.5538 189.264C85.3095 189.264 85.9028 189.43 86.3336 189.761C86.7678 190.093 87.0761 190.53 87.2583 191.074ZM94.5728 191.074L93.5188 191.372C93.4525 191.196 93.3548 191.026 93.2255 190.86C93.0996 190.691 92.9272 190.552 92.7085 190.442C92.4897 190.333 92.2096 190.278 91.8683 190.278C91.4009 190.278 91.0115 190.386 90.6999 190.602C90.3917 190.814 90.2376 191.084 90.2376 191.412C90.2376 191.704 90.3436 191.934 90.5558 192.103C90.7679 192.272 91.0993 192.413 91.5501 192.526L92.6836 192.804C93.3664 192.97 93.8751 193.223 94.2099 193.565C94.5446 193.903 94.712 194.339 94.712 194.872C94.712 195.31 94.5861 195.701 94.3342 196.045C94.0856 196.39 93.7376 196.662 93.2901 196.861C92.8427 197.06 92.3223 197.159 91.729 197.159C90.9502 197.159 90.3055 196.99 89.7951 196.652C89.2847 196.314 88.9615 195.82 88.8256 195.17L89.9393 194.892C90.0453 195.303 90.2459 195.611 90.5408 195.817C90.8391 196.022 91.2286 196.125 91.7092 196.125C92.256 196.125 92.6902 196.009 93.0117 195.777C93.3365 195.542 93.4989 195.26 93.4989 194.932C93.4989 194.667 93.4061 194.445 93.2205 194.266C93.0349 194.083 92.7499 193.947 92.3654 193.858L91.0927 193.56C90.3933 193.394 89.8796 193.137 89.5515 192.789C89.2267 192.438 89.0643 191.999 89.0643 191.472C89.0643 191.041 89.1853 190.66 89.4272 190.328C89.6725 189.997 90.0056 189.737 90.4265 189.548C90.8507 189.359 91.3313 189.264 91.8683 189.264C92.6239 189.264 93.2172 189.43 93.6481 189.761C94.0823 190.093 94.3905 190.53 94.5728 191.074ZM98.2083 197L95.8816 189.364H97.1145L98.7651 195.21H98.8446L100.475 189.364H101.728L103.339 195.19H103.419L105.069 189.364H106.302L103.975 197H102.822L101.151 191.134H101.032L99.3617 197H98.2083ZM110.696 197.159C110.006 197.159 109.401 196.995 108.881 196.667C108.364 196.339 107.96 195.88 107.668 195.29C107.38 194.7 107.235 194.01 107.235 193.222C107.235 192.426 107.38 191.732 107.668 191.138C107.96 190.545 108.364 190.085 108.881 189.756C109.401 189.428 110.006 189.264 110.696 189.264C111.385 189.264 111.988 189.428 112.505 189.756C113.026 190.085 113.43 190.545 113.718 191.138C114.01 191.732 114.156 192.426 114.156 193.222C114.156 194.01 114.01 194.7 113.718 195.29C113.43 195.88 113.026 196.339 112.505 196.667C111.988 196.995 111.385 197.159 110.696 197.159ZM110.696 196.105C111.219 196.105 111.65 195.971 111.988 195.702C112.326 195.434 112.577 195.081 112.739 194.643C112.901 194.206 112.983 193.732 112.983 193.222C112.983 192.711 112.901 192.236 112.739 191.795C112.577 191.354 112.326 190.998 111.988 190.726C111.65 190.454 111.219 190.318 110.696 190.318C110.172 190.318 109.741 190.454 109.403 190.726C109.065 190.998 108.815 191.354 108.652 191.795C108.49 192.236 108.409 192.711 108.409 193.222C108.409 193.732 108.49 194.206 108.652 194.643C108.815 195.081 109.065 195.434 109.403 195.702C109.741 195.971 110.172 196.105 110.696 196.105ZM115.947 197V189.364H117.08V190.517H117.16C117.299 190.139 117.551 189.833 117.916 189.597C118.28 189.362 118.691 189.244 119.149 189.244C119.235 189.244 119.343 189.246 119.472 189.249C119.601 189.253 119.699 189.258 119.765 189.264V190.457C119.725 190.447 119.634 190.433 119.492 190.413C119.352 190.389 119.205 190.378 119.049 190.378C118.678 190.378 118.347 190.456 118.055 190.612C117.767 190.764 117.538 190.976 117.369 191.248C117.203 191.516 117.12 191.823 117.12 192.168V197H115.947ZM123.807 197.159C123.171 197.159 122.609 196.998 122.122 196.677C121.634 196.352 121.253 195.895 120.978 195.305C120.703 194.711 120.566 194.01 120.566 193.202C120.566 192.4 120.703 191.704 120.978 191.114C121.253 190.524 121.636 190.068 122.127 189.746C122.617 189.425 123.184 189.264 123.827 189.264C124.324 189.264 124.717 189.347 125.005 189.513C125.297 189.675 125.519 189.861 125.671 190.07C125.827 190.275 125.948 190.444 126.034 190.577H126.134V186.818H127.307V197H126.173V195.827H126.034C125.948 195.966 125.825 196.142 125.666 196.354C125.507 196.562 125.28 196.75 124.985 196.915C124.69 197.078 124.298 197.159 123.807 197.159ZM123.966 196.105C124.437 196.105 124.834 195.982 125.159 195.737C125.484 195.489 125.731 195.146 125.9 194.708C126.069 194.267 126.154 193.759 126.154 193.182C126.154 192.612 126.071 192.113 125.905 191.685C125.739 191.254 125.494 190.92 125.169 190.681C124.844 190.439 124.443 190.318 123.966 190.318C123.469 190.318 123.055 190.446 122.723 190.701C122.395 190.953 122.148 191.296 121.982 191.73C121.82 192.161 121.739 192.645 121.739 193.182C121.739 193.725 121.822 194.219 121.987 194.663C122.156 195.104 122.405 195.455 122.733 195.717C123.065 195.976 123.476 196.105 123.966 196.105Z" fill="#A1A1AA"/>
<path d="M28 237.5H36C37.933 237.5 39.5 239.067 39.5 241V249C39.5 250.933 37.933 252.5 36 252.5H28C26.067 252.5 24.5 250.933 24.5 249V241C24.5 239.067 26.067 237.5 28 237.5Z" fill="#09090B"/>
<path d="M28 237.5H36C37.933 237.5 39.5 239.067 39.5 241V249C39.5 250.933 37.933 252.5 36 252.5H28C26.067 252.5 24.5 250.933 24.5 249V241C24.5 239.067 26.067 237.5 28 237.5Z" stroke="#3F3F46"/>
<path d="M48.9588 249V240.273H52.0696C52.7457 240.273 53.3068 240.389 53.7528 240.622C54.2017 240.855 54.5369 241.178 54.7585 241.589C54.9801 241.999 55.0909 242.472 55.0909 243.009C55.0909 243.543 54.9787 244.013 54.7543 244.419C54.5327 244.822 54.1974 245.136 53.7486 245.361C53.3026 245.585 52.7415 245.697 52.0653 245.697H49.7088V244.564H51.946C52.3722 244.564 52.7188 244.503 52.9858 244.381C53.2557 244.259 53.4531 244.081 53.5781 243.848C53.7031 243.615 53.7656 243.335 53.7656 243.009C53.7656 242.679 53.7017 242.393 53.5739 242.152C53.4489 241.911 53.2514 241.726 52.9815 241.598C52.7145 241.467 52.3636 241.402 51.929 241.402H50.2756V249H48.9588ZM53.267 245.062L55.4233 249H53.9233L51.8097 245.062H53.267ZM59.2579 249.132C58.613 249.132 58.0576 248.994 57.5917 248.719C57.1286 248.44 56.7707 248.05 56.5178 247.547C56.2678 247.041 56.1428 246.449 56.1428 245.77C56.1428 245.099 56.2678 244.509 56.5178 243.997C56.7707 243.486 57.123 243.087 57.5747 242.8C58.0292 242.513 58.5605 242.369 59.1684 242.369C59.5377 242.369 59.8957 242.43 60.2423 242.553C60.5889 242.675 60.8999 242.866 61.1755 243.128C61.4511 243.389 61.6684 243.729 61.8275 244.146C61.9866 244.561 62.0661 245.065 62.0661 245.659V246.111H56.863V245.156H60.8176C60.8176 244.821 60.7494 244.524 60.613 244.266C60.4767 244.004 60.2849 243.798 60.0377 243.648C59.7934 243.497 59.5065 243.422 59.1769 243.422C58.819 243.422 58.5065 243.51 58.2394 243.686C57.9752 243.859 57.7707 244.087 57.6258 244.368C57.4838 244.646 57.4127 244.949 57.4127 245.276V246.021C57.4127 246.459 57.4894 246.831 57.6428 247.138C57.7991 247.445 58.0164 247.679 58.2948 247.841C58.5732 248 58.8985 248.08 59.2707 248.08C59.5122 248.08 59.7323 248.045 59.9312 247.977C60.1301 247.906 60.3019 247.801 60.4468 247.662C60.5917 247.523 60.7025 247.351 60.7792 247.146L61.9852 247.364C61.8886 247.719 61.7153 248.03 61.4653 248.297C61.2181 248.561 60.907 248.767 60.532 248.915C60.1599 249.06 59.7352 249.132 59.2579 249.132ZM63.4078 249V242.455H64.6309V243.52H64.7118C64.8482 243.159 65.0712 242.878 65.3809 242.676C65.6905 242.472 66.0613 242.369 66.4931 242.369C66.9306 242.369 67.2971 242.472 67.5925 242.676C67.8908 242.881 68.111 243.162 68.253 243.52H68.3212C68.4774 243.17 68.726 242.892 69.0669 242.685C69.4078 242.474 69.8141 242.369 70.2857 242.369C70.8794 242.369 71.3638 242.555 71.7388 242.928C72.1167 243.3 72.3056 243.861 72.3056 244.611V249H71.0314V244.73C71.0314 244.287 70.9107 243.966 70.6692 243.767C70.4277 243.568 70.1394 243.469 69.8042 243.469C69.3894 243.469 69.0669 243.597 68.8368 243.852C68.6067 244.105 68.4917 244.43 68.4917 244.828V249H67.2218V244.649C67.2218 244.294 67.111 244.009 66.8894 243.793C66.6678 243.577 66.3794 243.469 66.0243 243.469C65.7828 243.469 65.5598 243.533 65.3553 243.661C65.1536 243.786 64.9902 243.96 64.8652 244.185C64.7431 244.409 64.682 244.669 64.682 244.964V249H63.4078ZM76.7623 249.132C76.1175 249.132 75.5621 248.994 75.0961 248.719C74.6331 248.44 74.2751 248.05 74.0223 247.547C73.7723 247.041 73.6473 246.449 73.6473 245.77C73.6473 245.099 73.7723 244.509 74.0223 243.997C74.2751 243.486 74.6274 243.087 75.0791 242.8C75.5336 242.513 76.0649 242.369 76.6728 242.369C77.0422 242.369 77.4001 242.43 77.7467 242.553C78.0933 242.675 78.4044 242.866 78.68 243.128C78.9555 243.389 79.1729 243.729 79.3319 244.146C79.491 244.561 79.5706 245.065 79.5706 245.659V246.111H74.3675V245.156H78.322C78.322 244.821 78.2538 244.524 78.1175 244.266C77.9811 244.004 77.7893 243.798 77.5422 243.648C77.2978 243.497 77.0109 243.422 76.6814 243.422C76.3234 243.422 76.0109 243.51 75.7439 243.686C75.4797 243.859 75.2751 244.087 75.1302 244.368C74.9882 244.646 74.9172 244.949 74.9172 245.276V246.021C74.9172 246.459 74.9939 246.831 75.1473 247.138C75.3035 247.445 75.5209 247.679 75.7993 247.841C76.0777 248 76.403 248.08 76.7751 248.08C77.0166 248.08 77.2368 248.045 77.4356 247.977C77.6345 247.906 77.8064 247.801 77.9513 247.662C78.0961 247.523 78.2069 247.351 78.2836 247.146L79.4896 247.364C79.393 247.719 79.2197 248.03 78.9697 248.297C78.7226 248.561 78.4115 248.767 78.0365 248.915C77.6643 249.06 77.2396 249.132 76.7623 249.132ZM80.9123 249V242.455H82.1353V243.52H82.2163C82.3526 243.159 82.5756 242.878 82.8853 242.676C83.195 242.472 83.5657 242.369 83.9975 242.369C84.435 242.369 84.8015 242.472 85.0969 242.676C85.3952 242.881 85.6154 243.162 85.7575 243.52H85.8256C85.9819 243.17 86.2305 242.892 86.5714 242.685C86.9123 242.474 87.3185 242.369 87.7901 242.369C88.3839 242.369 88.8683 242.555 89.2433 242.928C89.6211 243.3 89.81 243.861 89.81 244.611V249H88.5359V244.73C88.5359 244.287 88.4151 243.966 88.1736 243.767C87.9322 243.568 87.6438 243.469 87.3086 243.469C86.8938 243.469 86.5714 243.597 86.3413 243.852C86.1111 244.105 85.9961 244.43 85.9961 244.828V249H84.7262V244.649C84.7262 244.294 84.6154 244.009 84.3938 243.793C84.1722 243.577 83.8839 243.469 83.5288 243.469C83.2873 243.469 83.0643 243.533 82.8597 243.661C82.658 243.786 82.4947 243.96 82.3697 244.185C82.2475 244.409 82.1864 244.669 82.1864 244.964V249H80.9123ZM91.548 249V240.273H92.8222V243.516H92.8989C92.9727 243.379 93.0793 243.222 93.2185 243.043C93.3577 242.864 93.5509 242.707 93.798 242.574C94.0452 242.438 94.3719 242.369 94.7781 242.369C95.3065 242.369 95.7781 242.503 96.1929 242.77C96.6077 243.037 96.933 243.422 97.1688 243.925C97.4074 244.428 97.5267 245.033 97.5267 245.74C97.5267 246.447 97.4088 247.054 97.173 247.56C96.9372 248.062 96.6134 248.45 96.2014 248.723C95.7895 248.993 95.3193 249.128 94.7909 249.128C94.3932 249.128 94.0679 249.061 93.8151 248.928C93.5651 248.794 93.369 248.638 93.227 248.459C93.085 248.28 92.9756 248.121 92.8989 247.982H92.7923V249H91.548ZM92.7966 245.727C92.7966 246.187 92.8634 246.591 92.9969 246.938C93.1304 247.284 93.3236 247.555 93.5764 247.751C93.8293 247.945 94.1389 248.041 94.5054 248.041C94.8861 248.041 95.2043 247.94 95.46 247.739C95.7156 247.534 95.9088 247.257 96.0395 246.908C96.173 246.558 96.2398 246.165 96.2398 245.727C96.2398 245.295 96.1744 244.908 96.0438 244.564C95.9159 244.22 95.7227 243.949 95.4642 243.75C95.2085 243.551 94.8889 243.452 94.5054 243.452C94.1361 243.452 93.8236 243.547 93.5679 243.737C93.3151 243.928 93.1233 244.193 92.9926 244.534C92.8619 244.875 92.7966 245.273 92.7966 245.727ZM101.706 249.132C101.062 249.132 100.506 248.994 100.04 248.719C99.5772 248.44 99.2193 248.05 98.9664 247.547C98.7164 247.041 98.5914 246.449 98.5914 245.77C98.5914 245.099 98.7164 244.509 98.9664 243.997C99.2193 243.486 99.5716 243.087 100.023 242.8C100.478 242.513 101.009 242.369 101.617 242.369C101.986 242.369 102.344 242.43 102.691 242.553C103.037 242.675 103.349 242.866 103.624 243.128C103.9 243.389 104.117 243.729 104.276 244.146C104.435 244.561 104.515 245.065 104.515 245.659V246.111H99.3116V245.156H103.266C103.266 244.821 103.198 244.524 103.062 244.266C102.925 244.004 102.733 243.798 102.486 243.648C102.242 243.497 101.955 243.422 101.626 243.422C101.268 243.422 100.955 243.51 100.688 243.686C100.424 243.859 100.219 244.087 100.074 244.368C99.9323 244.646 99.8613 244.949 99.8613 245.276V246.021C99.8613 246.459 99.938 246.831 100.091 247.138C100.248 247.445 100.465 247.679 100.743 247.841C101.022 248 101.347 248.08 101.719 248.08C101.961 248.08 102.181 248.045 102.38 247.977C102.579 247.906 102.751 247.801 102.895 247.662C103.04 247.523 103.151 247.351 103.228 247.146L104.434 247.364C104.337 247.719 104.164 248.03 103.914 248.297C103.667 248.561 103.356 248.767 102.981 248.915C102.608 249.06 102.184 249.132 101.706 249.132ZM105.856 249V242.455H107.088V243.494H107.156C107.275 243.142 107.486 242.865 107.787 242.663C108.091 242.459 108.435 242.357 108.818 242.357C108.898 242.357 108.991 242.359 109.099 242.365C109.21 242.371 109.297 242.378 109.359 242.386V243.605C109.308 243.591 109.217 243.575 109.087 243.558C108.956 243.538 108.825 243.528 108.695 243.528C108.393 243.528 108.125 243.592 107.889 243.72C107.656 243.845 107.471 244.02 107.335 244.244C107.199 244.466 107.131 244.719 107.131 245.003V249H105.856ZM113.494 249V242.455H114.717V243.52H114.798C114.934 243.159 115.157 242.878 115.467 242.676C115.776 242.472 116.147 242.369 116.579 242.369C117.016 242.369 117.383 242.472 117.678 242.676C117.977 242.881 118.197 243.162 118.339 243.52H118.407C118.563 243.17 118.812 242.892 119.153 242.685C119.494 242.474 119.9 242.369 120.372 242.369C120.965 242.369 121.45 242.555 121.825 242.928C122.202 243.3 122.391 243.861 122.391 244.611V249H121.117V244.73C121.117 244.287 120.997 243.966 120.755 243.767C120.514 243.568 120.225 243.469 119.89 243.469C119.475 243.469 119.153 243.597 118.923 243.852C118.693 244.105 118.577 244.43 118.577 244.828V249H117.308V244.649C117.308 244.294 117.197 244.009 116.975 243.793C116.754 243.577 116.465 243.469 116.11 243.469C115.869 243.469 115.646 243.533 115.441 243.661C115.239 243.786 115.076 243.96 114.951 244.185C114.829 244.409 114.768 244.669 114.768 244.964V249H113.494ZM126.848 249.132C126.203 249.132 125.648 248.994 125.182 248.719C124.719 248.44 124.361 248.05 124.108 247.547C123.858 247.041 123.733 246.449 123.733 245.77C123.733 245.099 123.858 244.509 124.108 243.997C124.361 243.486 124.713 243.087 125.165 242.8C125.619 242.513 126.151 242.369 126.759 242.369C127.128 242.369 127.486 242.43 127.833 242.553C128.179 242.675 128.49 242.866 128.766 243.128C129.041 243.389 129.259 243.729 129.418 244.146C129.577 244.561 129.656 245.065 129.656 245.659V246.111H124.453V245.156H128.408C128.408 244.821 128.34 244.524 128.203 244.266C128.067 244.004 127.875 243.798 127.628 243.648C127.384 243.497 127.097 243.422 126.767 243.422C126.409 243.422 126.097 243.51 125.83 243.686C125.566 243.859 125.361 244.087 125.216 244.368C125.074 244.646 125.003 244.949 125.003 245.276V246.021C125.003 246.459 125.08 246.831 125.233 247.138C125.389 247.445 125.607 247.679 125.885 247.841C126.164 248 126.489 248.08 126.861 248.08C127.102 248.08 127.323 248.045 127.521 247.977C127.72 247.906 127.892 247.801 128.037 247.662C128.182 247.523 128.293 247.351 128.369 247.146L129.575 247.364C129.479 247.719 129.306 248.03 129.056 248.297C128.808 248.561 128.497 248.767 128.122 248.915C127.75 249.06 127.325 249.132 126.848 249.132Z" fill="#FAFAFA"/>
<path d="M280.924 250V241.06H286.744V242.32H282.34V245.008H286.264V246.268H282.34V250H280.924ZM290.906 250.144C290.282 250.144 289.71 249.996 289.19 249.7C288.678 249.404 288.27 249 287.966 248.488C287.662 247.976 287.51 247.396 287.51 246.748C287.51 246.092 287.662 245.512 287.966 245.008C288.27 244.496 288.678 244.096 289.19 243.808C289.702 243.512 290.274 243.364 290.906 243.364C291.546 243.364 292.118 243.512 292.622 243.808C293.134 244.096 293.538 244.496 293.834 245.008C294.138 245.512 294.29 246.092 294.29 246.748C294.29 247.404 294.138 247.988 293.834 248.5C293.53 249.012 293.122 249.416 292.61 249.712C292.098 250 291.53 250.144 290.906 250.144ZM290.906 248.884C291.29 248.884 291.63 248.792 291.926 248.608C292.222 248.424 292.454 248.172 292.622 247.852C292.798 247.524 292.886 247.156 292.886 246.748C292.886 246.34 292.798 245.976 292.622 245.656C292.454 245.336 292.222 245.084 291.926 244.9C291.63 244.716 291.29 244.624 290.906 244.624C290.53 244.624 290.19 244.716 289.886 244.9C289.59 245.084 289.354 245.336 289.178 245.656C289.01 245.976 288.926 246.34 288.926 246.748C288.926 247.156 289.01 247.524 289.178 247.852C289.354 248.172 289.59 248.424 289.886 248.608C290.19 248.792 290.53 248.884 290.906 248.884ZM295.764 250V243.508H297.06V244.816L296.94 244.624C297.084 244.2 297.316 243.896 297.636 243.712C297.956 243.52 298.34 243.424 298.788 243.424H299.184V244.66H298.62C298.172 244.66 297.808 244.8 297.528 245.08C297.256 245.352 297.12 245.744 297.12 246.256V250H295.764ZM303.394 252.64C302.922 252.64 302.486 252.564 302.086 252.412C301.686 252.26 301.342 252.048 301.054 251.776C300.766 251.512 300.55 251.2 300.406 250.84L301.654 250.324C301.766 250.628 301.97 250.88 302.266 251.08C302.57 251.28 302.942 251.38 303.382 251.38C303.726 251.38 304.034 251.312 304.306 251.176C304.578 251.048 304.794 250.856 304.954 250.6C305.114 250.352 305.194 250.052 305.194 249.7V248.236L305.434 248.512C305.21 248.928 304.898 249.244 304.498 249.46C304.106 249.676 303.662 249.784 303.166 249.784C302.566 249.784 302.026 249.644 301.546 249.364C301.066 249.084 300.686 248.7 300.406 248.212C300.134 247.724 299.998 247.176 299.998 246.568C299.998 245.952 300.134 245.404 300.406 244.924C300.686 244.444 301.062 244.064 301.534 243.784C302.006 243.504 302.546 243.364 303.154 243.364C303.65 243.364 304.09 243.472 304.474 243.688C304.866 243.896 305.186 244.2 305.434 244.6L305.254 244.936V243.508H306.538V249.7C306.538 250.26 306.402 250.76 306.13 251.2C305.866 251.648 305.498 252 305.026 252.256C304.554 252.512 304.01 252.64 303.394 252.64ZM303.322 248.524C303.682 248.524 304.002 248.44 304.282 248.272C304.562 248.096 304.782 247.864 304.942 247.576C305.11 247.28 305.194 246.948 305.194 246.58C305.194 246.212 305.11 245.88 304.942 245.584C304.774 245.288 304.55 245.056 304.27 244.888C303.99 244.712 303.674 244.624 303.322 244.624C302.954 244.624 302.626 244.712 302.338 244.888C302.05 245.056 301.822 245.288 301.654 245.584C301.494 245.872 301.414 246.204 301.414 246.58C301.414 246.94 301.494 247.268 301.654 247.564C301.822 247.86 302.05 248.096 302.338 248.272C302.626 248.44 302.954 248.524 303.322 248.524ZM311.407 250.144C310.783 250.144 310.211 249.996 309.691 249.7C309.179 249.404 308.771 249 308.467 248.488C308.163 247.976 308.011 247.396 308.011 246.748C308.011 246.092 308.163 245.512 308.467 245.008C308.771 244.496 309.179 244.096 309.691 243.808C310.203 243.512 310.775 243.364 311.407 243.364C312.047 243.364 312.619 243.512 313.123 243.808C313.635 244.096 314.039 244.496 314.335 245.008C314.639 245.512 314.791 246.092 314.791 246.748C314.791 247.404 314.639 247.988 314.335 248.5C314.031 249.012 313.623 249.416 313.111 249.712C312.599 250 312.031 250.144 311.407 250.144ZM311.407 248.884C311.791 248.884 312.131 248.792 312.427 248.608C312.723 248.424 312.955 248.172 313.123 247.852C313.299 247.524 313.387 247.156 313.387 246.748C313.387 246.34 313.299 245.976 313.123 245.656C312.955 245.336 312.723 245.084 312.427 244.9C312.131 244.716 311.791 244.624 311.407 244.624C311.031 244.624 310.691 244.716 310.387 244.9C310.091 245.084 309.855 245.336 309.679 245.656C309.511 245.976 309.427 246.34 309.427 246.748C309.427 247.156 309.511 247.524 309.679 247.852C309.855 248.172 310.091 248.424 310.387 248.608C310.691 248.792 311.031 248.884 311.407 248.884ZM318.955 250.072C318.275 250.072 317.747 249.88 317.371 249.496C316.995 249.112 316.807 248.572 316.807 247.876V244.732H315.667V243.508H315.847C316.151 243.508 316.387 243.42 316.555 243.244C316.723 243.068 316.807 242.828 316.807 242.524V242.02H318.163V243.508H319.639V244.732H318.163V247.816C318.163 248.04 318.199 248.232 318.271 248.392C318.343 248.544 318.459 248.664 318.619 248.752C318.779 248.832 318.987 248.872 319.243 248.872C319.307 248.872 319.379 248.868 319.459 248.86C319.539 248.852 319.615 248.844 319.687 248.836V250C319.575 250.016 319.451 250.032 319.315 250.048C319.179 250.064 319.059 250.072 318.955 250.072ZM323.54 250V241.06H326.792C327.392 241.06 327.92 241.172 328.376 241.396C328.84 241.612 329.2 241.932 329.456 242.356C329.712 242.772 329.84 243.272 329.84 243.856C329.84 244.432 329.708 244.928 329.444 245.344C329.188 245.76 328.832 246.08 328.376 246.304C327.92 246.528 327.392 246.64 326.792 246.64H324.956V250H323.54ZM324.956 245.38H326.828C327.148 245.38 327.428 245.316 327.668 245.188C327.908 245.06 328.096 244.884 328.232 244.66C328.368 244.428 328.436 244.156 328.436 243.844C328.436 243.532 328.368 243.264 328.232 243.04C328.096 242.808 327.908 242.632 327.668 242.512C327.428 242.384 327.148 242.32 326.828 242.32H324.956V245.38ZM332.838 250.144C332.398 250.144 332.01 250.068 331.674 249.916C331.346 249.756 331.09 249.54 330.906 249.268C330.722 248.988 330.63 248.66 330.63 248.284C330.63 247.932 330.706 247.616 330.858 247.336C331.018 247.056 331.262 246.82 331.59 246.628C331.918 246.436 332.33 246.3 332.826 246.22L335.082 245.848V246.916L333.09 247.264C332.73 247.328 332.466 247.444 332.298 247.612C332.13 247.772 332.046 247.98 332.046 248.236C332.046 248.484 332.138 248.688 332.322 248.848C332.514 249 332.758 249.076 333.054 249.076C333.422 249.076 333.742 248.996 334.014 248.836C334.294 248.676 334.51 248.464 334.662 248.2C334.814 247.928 334.89 247.628 334.89 247.3V245.632C334.89 245.312 334.77 245.052 334.53 244.852C334.298 244.644 333.986 244.54 333.594 244.54C333.234 244.54 332.918 244.636 332.646 244.828C332.382 245.012 332.186 245.252 332.058 245.548L330.93 244.984C331.05 244.664 331.246 244.384 331.518 244.144C331.79 243.896 332.106 243.704 332.466 243.568C332.834 243.432 333.222 243.364 333.63 243.364C334.142 243.364 334.594 243.46 334.986 243.652C335.386 243.844 335.694 244.112 335.91 244.456C336.134 244.792 336.246 245.184 336.246 245.632V250H334.95V248.824L335.226 248.86C335.074 249.124 334.878 249.352 334.638 249.544C334.406 249.736 334.138 249.884 333.834 249.988C333.538 250.092 333.206 250.144 332.838 250.144ZM340.382 250.144C339.718 250.144 339.134 249.98 338.63 249.652C338.134 249.324 337.786 248.884 337.586 248.332L338.63 247.84C338.806 248.208 339.046 248.5 339.35 248.716C339.662 248.932 340.006 249.04 340.382 249.04C340.702 249.04 340.962 248.968 341.162 248.824C341.362 248.68 341.462 248.484 341.462 248.236C341.462 248.076 341.418 247.948 341.33 247.852C341.242 247.748 341.13 247.664 340.994 247.6C340.866 247.536 340.734 247.488 340.598 247.456L339.578 247.168C339.018 247.008 338.598 246.768 338.318 246.448C338.046 246.12 337.91 245.74 337.91 245.308C337.91 244.916 338.01 244.576 338.21 244.288C338.41 243.992 338.686 243.764 339.038 243.604C339.39 243.444 339.786 243.364 340.226 243.364C340.818 243.364 341.346 243.512 341.81 243.808C342.274 244.096 342.602 244.5 342.794 245.02L341.75 245.512C341.622 245.2 341.418 244.952 341.138 244.768C340.866 244.584 340.558 244.492 340.214 244.492C339.918 244.492 339.682 244.564 339.506 244.708C339.33 244.844 339.242 245.024 339.242 245.248C339.242 245.4 339.282 245.528 339.362 245.632C339.442 245.728 339.546 245.808 339.674 245.872C339.802 245.928 339.934 245.976 340.07 246.016L341.126 246.328C341.662 246.48 342.074 246.72 342.362 247.048C342.65 247.368 342.794 247.752 342.794 248.2C342.794 248.584 342.69 248.924 342.482 249.22C342.282 249.508 342.002 249.736 341.642 249.904C341.282 250.064 340.862 250.144 340.382 250.144ZM346.672 250.144C346.008 250.144 345.424 249.98 344.92 249.652C344.424 249.324 344.076 248.884 343.876 248.332L344.92 247.84C345.096 248.208 345.336 248.5 345.64 248.716C345.952 248.932 346.296 249.04 346.672 249.04C346.992 249.04 347.252 248.968 347.452 248.824C347.652 248.68 347.752 248.484 347.752 248.236C347.752 248.076 347.708 247.948 347.62 247.852C347.532 247.748 347.42 247.664 347.284 247.6C347.156 247.536 347.024 247.488 346.888 247.456L345.868 247.168C345.308 247.008 344.888 246.768 344.608 246.448C344.336 246.12 344.2 245.74 344.2 245.308C344.2 244.916 344.3 244.576 344.5 244.288C344.7 243.992 344.976 243.764 345.328 243.604C345.68 243.444 346.076 243.364 346.516 243.364C347.108 243.364 347.636 243.512 348.1 243.808C348.564 244.096 348.892 244.5 349.084 245.02L348.04 245.512C347.912 245.2 347.708 244.952 347.428 244.768C347.156 244.584 346.848 244.492 346.504 244.492C346.208 244.492 345.972 244.564 345.796 244.708C345.62 244.844 345.532 245.024 345.532 245.248C345.532 245.4 345.572 245.528 345.652 245.632C345.732 245.728 345.836 245.808 345.964 245.872C346.092 245.928 346.224 245.976 346.36 246.016L347.416 246.328C347.952 246.48 348.364 246.72 348.652 247.048C348.94 247.368 349.084 247.752 349.084 248.2C349.084 248.584 348.98 248.924 348.772 249.22C348.572 249.508 348.292 249.736 347.932 249.904C347.572 250.064 347.152 250.144 346.672 250.144ZM352.018 250L349.786 243.508H351.226L352.93 248.68H352.426L354.166 243.508H355.402L357.13 248.68H356.626L358.342 243.508H359.782L357.538 250H356.314L354.562 244.708H355.006L353.254 250H352.018ZM363.876 250.144C363.252 250.144 362.68 249.996 362.16 249.7C361.648 249.404 361.24 249 360.936 248.488C360.632 247.976 360.48 247.396 360.48 246.748C360.48 246.092 360.632 245.512 360.936 245.008C361.24 244.496 361.648 244.096 362.16 243.808C362.672 243.512 363.244 243.364 363.876 243.364C364.516 243.364 365.088 243.512 365.592 243.808C366.104 244.096 366.508 244.496 366.804 245.008C367.108 245.512 367.26 246.092 367.26 246.748C367.26 247.404 367.108 247.988 366.804 248.5C366.5 249.012 366.092 249.416 365.58 249.712C365.068 250 364.5 250.144 363.876 250.144ZM363.876 248.884C364.26 248.884 364.6 248.792 364.896 248.608C365.192 248.424 365.424 248.172 365.592 247.852C365.768 247.524 365.856 247.156 365.856 246.748C365.856 246.34 365.768 245.976 365.592 245.656C365.424 245.336 365.192 245.084 364.896 244.9C364.6 244.716 364.26 244.624 363.876 244.624C363.5 244.624 363.16 244.716 362.856 244.9C362.56 245.084 362.324 245.336 362.148 245.656C361.98 245.976 361.896 246.34 361.896 246.748C361.896 247.156 361.98 247.524 362.148 247.852C362.324 248.172 362.56 248.424 362.856 248.608C363.16 248.792 363.5 248.884 363.876 248.884ZM368.734 250V243.508H370.03V244.816L369.91 244.624C370.054 244.2 370.286 243.896 370.606 243.712C370.926 243.52 371.31 243.424 371.758 243.424H372.154V244.66H371.59C371.142 244.66 370.778 244.8 370.498 245.08C370.226 245.352 370.09 245.744 370.09 246.256V250H368.734ZM376.232 250.144C375.608 250.144 375.048 249.996 374.552 249.7C374.064 249.396 373.676 248.988 373.388 248.476C373.108 247.964 372.968 247.388 372.968 246.748C372.968 246.108 373.112 245.532 373.4 245.02C373.688 244.508 374.076 244.104 374.564 243.808C375.052 243.512 375.604 243.364 376.22 243.364C376.74 243.364 377.2 243.468 377.6 243.676C378 243.884 378.316 244.172 378.548 244.54L378.344 244.852V240.916H379.688V250H378.404V248.68L378.56 248.932C378.336 249.324 378.016 249.624 377.6 249.832C377.184 250.04 376.728 250.144 376.232 250.144ZM376.364 248.884C376.74 248.884 377.076 248.792 377.372 248.608C377.676 248.424 377.912 248.172 378.08 247.852C378.256 247.524 378.344 247.156 378.344 246.748C378.344 246.34 378.256 245.976 378.08 245.656C377.912 245.336 377.676 245.084 377.372 244.9C377.076 244.716 376.74 244.624 376.364 244.624C375.988 244.624 375.648 244.716 375.344 244.9C375.04 245.084 374.804 245.336 374.636 245.656C374.468 245.976 374.384 246.34 374.384 246.748C374.384 247.156 374.468 247.524 374.636 247.852C374.804 248.172 375.036 248.424 375.332 248.608C375.636 248.792 375.98 248.884 376.364 248.884ZM382.981 247.336V247.132C382.981 246.78 383.037 246.468 383.149 246.196C383.269 245.924 383.417 245.68 383.593 245.464C383.777 245.24 383.965 245.036 384.157 244.852C384.429 244.596 384.669 244.348 384.877 244.108C385.093 243.868 385.201 243.588 385.201 243.268C385.201 243.068 385.153 242.888 385.057 242.728C384.961 242.56 384.817 242.428 384.625 242.332C384.441 242.228 384.213 242.176 383.941 242.176C383.565 242.176 383.241 242.292 382.969 242.524C382.705 242.748 382.537 243.052 382.465 243.436L381.205 243.136C381.277 242.696 381.437 242.312 381.685 241.984C381.941 241.648 382.261 241.388 382.645 241.204C383.037 241.012 383.477 240.916 383.965 240.916C384.517 240.916 384.989 241.028 385.381 241.252C385.781 241.468 386.085 241.752 386.293 242.104C386.501 242.456 386.605 242.836 386.605 243.244C386.605 243.572 386.537 243.868 386.401 244.132C386.273 244.388 386.105 244.624 385.897 244.84C385.697 245.056 385.489 245.268 385.273 245.476C385.017 245.724 384.789 245.984 384.589 246.256C384.397 246.52 384.301 246.832 384.301 247.192V247.336H382.981ZM382.981 250V248.44H384.361V250H382.981Z" fill="#FAFAFA"/>
<path d="M280 252.1H387.289V252.58H280V252.1Z" fill="#FAFAFA"/>
<path d="M24 286C24 281.582 27.5817 278 32 278H380C384.418 278 388 281.582 388 286V314C388 318.418 384.418 322 380 322H32C27.5817 322 24 318.418 24 314V286Z" fill="#FAFAFA"/>
<path d="M186.619 305V294.818H188.155V303.678H192.768V305H186.619ZM197.534 305.154C196.818 305.154 196.194 304.99 195.66 304.662C195.126 304.334 194.712 303.875 194.417 303.285C194.122 302.695 193.975 302.005 193.975 301.217C193.975 300.424 194.122 299.732 194.417 299.138C194.712 298.545 195.126 298.085 195.66 297.756C196.194 297.428 196.818 297.264 197.534 297.264C198.25 297.264 198.875 297.428 199.409 297.756C199.942 298.085 200.356 298.545 200.651 299.138C200.946 299.732 201.094 300.424 201.094 301.217C201.094 302.005 200.946 302.695 200.651 303.285C200.356 303.875 199.942 304.334 199.409 304.662C198.875 304.99 198.25 305.154 197.534 305.154ZM197.539 303.906C198.003 303.906 198.388 303.784 198.693 303.538C198.998 303.293 199.223 302.967 199.369 302.559C199.518 302.151 199.592 301.702 199.592 301.212C199.592 300.724 199.518 300.277 199.369 299.869C199.223 299.458 198.998 299.129 198.693 298.88C198.388 298.631 198.003 298.507 197.539 298.507C197.072 298.507 196.684 298.631 196.376 298.88C196.071 299.129 195.844 299.458 195.695 299.869C195.549 300.277 195.476 300.724 195.476 301.212C195.476 301.702 195.549 302.151 195.695 302.559C195.844 302.967 196.071 303.293 196.376 303.538C196.684 303.784 197.072 303.906 197.539 303.906ZM205.871 308.023C205.264 308.023 204.742 307.943 204.305 307.784C203.871 307.625 203.516 307.415 203.241 307.153C202.966 306.891 202.76 306.604 202.624 306.293L203.902 305.766C203.992 305.911 204.111 306.066 204.26 306.228C204.413 306.394 204.618 306.535 204.877 306.651C205.138 306.767 205.475 306.825 205.886 306.825C206.449 306.825 206.915 306.687 207.283 306.412C207.651 306.14 207.835 305.706 207.835 305.109V303.608H207.74C207.651 303.77 207.521 303.951 207.352 304.15C207.187 304.349 206.958 304.521 206.666 304.667C206.375 304.813 205.995 304.886 205.528 304.886C204.925 304.886 204.381 304.745 203.897 304.463C203.417 304.178 203.035 303.759 202.754 303.205C202.475 302.648 202.336 301.964 202.336 301.152C202.336 300.34 202.474 299.644 202.749 299.064C203.027 298.484 203.408 298.04 203.892 297.732C204.376 297.42 204.925 297.264 205.538 297.264C206.012 297.264 206.395 297.344 206.686 297.503C206.978 297.659 207.205 297.841 207.367 298.05C207.533 298.259 207.661 298.442 207.75 298.602H207.86V297.364H209.316V305.169C209.316 305.825 209.164 306.364 208.859 306.785C208.554 307.206 208.141 307.517 207.621 307.719C207.104 307.922 206.521 308.023 205.871 308.023ZM205.856 303.653C206.284 303.653 206.645 303.553 206.94 303.354C207.238 303.152 207.463 302.864 207.616 302.489C207.772 302.112 207.85 301.659 207.85 301.132C207.85 300.618 207.773 300.166 207.621 299.775C207.468 299.384 207.245 299.079 206.95 298.86C206.655 298.638 206.29 298.527 205.856 298.527C205.409 298.527 205.036 298.643 204.737 298.875C204.439 299.104 204.214 299.415 204.061 299.81C203.912 300.204 203.838 300.645 203.838 301.132C203.838 301.633 203.914 302.072 204.066 302.45C204.219 302.827 204.444 303.122 204.742 303.335C205.044 303.547 205.415 303.653 205.856 303.653ZM214.847 305V297.364H216.333V305H214.847ZM215.598 296.185C215.339 296.185 215.117 296.099 214.931 295.927C214.749 295.751 214.658 295.542 214.658 295.3C214.658 295.055 214.749 294.846 214.931 294.674C215.117 294.498 215.339 294.411 215.598 294.411C215.856 294.411 216.077 294.498 216.259 294.674C216.444 294.846 216.537 295.055 216.537 295.3C216.537 295.542 216.444 295.751 216.259 295.927C216.077 296.099 215.856 296.185 215.598 296.185ZM219.736 300.466V305H218.249V297.364H219.676V298.607H219.771C219.946 298.202 220.221 297.877 220.596 297.632C220.974 297.387 221.449 297.264 222.023 297.264C222.543 297.264 222.999 297.374 223.39 297.592C223.781 297.808 224.084 298.129 224.3 298.557C224.515 298.984 224.623 299.513 224.623 300.143V305H223.136V300.322C223.136 299.768 222.992 299.336 222.704 299.024C222.415 298.709 222.019 298.552 221.516 298.552C221.171 298.552 220.864 298.626 220.596 298.776C220.331 298.925 220.12 299.143 219.964 299.432C219.812 299.717 219.736 300.062 219.736 300.466Z" fill="#09090B"/>
<defs>
<filter id="filter1_dd_1_1298" x="20" y="110" width="372" height="48" filterUnits="userSpaceOnUse" color-interpolation-filters="sRGB">
<feFlood flood-opacity="0" result="BackgroundImageFix"/>
<feColorMatrix in="SourceAlpha" type="matrix" values="0 0 0 0 0 0 0 0 0 0 0 0 0 0 0 0 0 0 127 0" result="hardAlpha"/>
<feMorphology radius="3" operator="dilate" in="SourceAlpha" result="effect1_dropShadow_1_1298"/>
<feOffset/>
<feComposite in2="hardAlpha" operator="out"/>
<feColorMatrix type="matrix" values="0 0 0 0 0.631373 0 0 0 0 0.631373 0 0 0 0 0.666667 0 0 0 1 0"/>
<feBlend mode="normal" in2="BackgroundImageFix" result="effect1_dropShadow_1_1298"/>
<feColorMatrix in="SourceAlpha" type="matrix" values="0 0 0 0 0 0 0 0 0 0 0 0 0 0 0 0 0 0 127 0" result="hardAlpha"/>
<feMorphology radius="1" operator="dilate" in="SourceAlpha" result="effect2_dropShadow_1_1298"/>
<feOffset/>
<feComposite in2="hardAlpha" operator="out"/>
<feColorMatrix type="matrix" values="0 0 0 0 1 0 0 0 0 1 0 0 0 0 1 0 0 0 1 0"/>
<feBlend mode="normal" in2="effect1_dropShadow_1_1298" result="effect2_dropShadow_1_1298"/>
<feBlend mode="normal" in="SourceGraphic" in2="effect2_dropShadow_1_1298" result="shape"/>
</filter>
<linearGradient id="paint0_linear_1_1298" x1="206" y1="24" x2="206" y2="64" gradientUnits="userSpaceOnUse">
<stop offset="0.75" stop-color="#FAFAFA"/>
<stop offset="1" stop-color="#A1A1AA"/>
</linearGradient>
</defs>
</svg>
